<?xml version="1.0" encoding="UTF-8"?>
<svg id="Layer_1" xmlns="http://www.w3.org/2000/svg" version="1.1" xmlns:xlink="http://www.w3.org/1999/xlink" viewBox="0 0 5000 5000">
  <!-- Generator: Adobe Illustrator 30.1.0, SVG Export Plug-In . SVG Version: 2.1.1 Build 136)  -->
  <defs>
    <style>
      .st0 {
        fill: url(#Gradiente_sem_nome_46);
      }

      .st1 {
        fill: url(#Gradiente_sem_nome_31);
      }

      .st2 {
        fill: url(#Gradiente_sem_nome_75);
      }

      .st3 {
        fill: url(#Gradiente_sem_nome_112);
      }

      .st4 {
        fill: url(#Gradiente_sem_nome_47);
      }

      .st5 {
        fill: url(#Gradiente_sem_nome_21);
      }

      .st6 {
        fill: url(#Gradiente_sem_nome_5);
      }

      .st7 {
        fill: url(#Gradiente_sem_nome_82);
      }

      .st8 {
        fill: url(#Gradiente_sem_nome_9);
      }

      .st9 {
        fill: url(#Gradiente_sem_nome_90);
      }

      .st10 {
        fill: url(#Gradiente_sem_nome_76);
      }

      .st11 {
        fill: url(#Gradiente_sem_nome_118);
      }

      .st12 {
        fill: url(#Gradiente_sem_nome_53);
      }

      .st13 {
        fill: url(#Gradiente_sem_nome_87);
      }

      .st14 {
        fill: url(#Gradiente_sem_nome_38);
      }

      .st15 {
        fill: url(#Gradiente_sem_nome_58);
      }

      .st16 {
        fill: url(#Gradiente_sem_nome_26);
      }

      .st17 {
        fill: url(#Gradiente_sem_nome_61);
      }

      .st18 {
        fill: url(#Gradiente_sem_nome_39);
      }

      .st19 {
        fill: url(#Gradiente_sem_nome_95);
      }

      .st20 {
        fill: url(#Gradiente_sem_nome_120);
      }

      .st21 {
        fill: url(#Gradiente_sem_nome_57);
      }

      .st22 {
        fill: url(#Gradiente_sem_nome_109);
      }

      .st23 {
        fill: url(#Gradiente_sem_nome_101);
      }

      .st24 {
        fill: url(#Gradiente_sem_nome_42);
      }

      .st25 {
        fill: url(#Gradiente_sem_nome_79);
      }

      .st26 {
        fill: url(#Gradiente_sem_nome_11);
      }

      .st27 {
        fill: url(#Gradiente_sem_nome_84);
      }

      .st28 {
        fill: url(#Gradiente_sem_nome_100);
      }

      .st29 {
        fill: url(#Gradiente_sem_nome_23);
      }

      .st30 {
        fill: url(#Gradiente_sem_nome_104);
      }

      .st31 {
        fill: url(#Gradiente_sem_nome_66);
      }

      .st32 {
        fill: url(#Gradiente_sem_nome_74);
      }

      .st33 {
        fill: url(#Gradiente_sem_nome_17);
      }

      .st34 {
        fill: url(#Gradiente_sem_nome_92);
      }

      .st35 {
        fill: url(#Gradiente_sem_nome_25);
      }

      .st36 {
        fill: url(#Gradiente_sem_nome_114);
      }

      .st37 {
        fill: url(#Gradiente_sem_nome_37);
      }

      .st38 {
        fill: url(#Gradiente_sem_nome_105);
      }

      .st39 {
        fill: url(#Gradiente_sem_nome_27);
      }

      .st40 {
        fill: url(#Gradiente_sem_nome_70);
      }

      .st41 {
        fill: url(#Gradiente_sem_nome_98);
      }

      .st42 {
        fill: url(#Gradiente_sem_nome_89);
      }

      .st43 {
        fill: url(#Gradiente_sem_nome_19);
      }

      .st44 {
        fill: url(#Gradiente_sem_nome_72);
      }

      .st45 {
        fill: url(#Gradiente_sem_nome_121);
      }

      .st46 {
        fill: url(#Gradiente_sem_nome_13);
      }

      .st47 {
        fill: url(#Gradiente_sem_nome_83);
      }

      .st48 {
        fill: url(#Gradiente_sem_nome_102);
      }

      .st49 {
        fill: url(#Gradiente_sem_nome_73);
      }

      .st50 {
        fill: url(#Gradiente_sem_nome_48);
      }

      .st51 {
        fill: url(#Gradiente_sem_nome_34);
      }

      .st52 {
        fill: url(#Gradiente_sem_nome_86);
      }

      .st53 {
        fill: url(#Gradiente_sem_nome_85);
      }

      .st54 {
        fill: url(#Gradiente_sem_nome_59);
      }

      .st55 {
        fill: url(#Gradiente_sem_nome_67);
      }

      .st56 {
        fill: url(#Gradiente_sem_nome_12);
      }

      .st57 {
        fill: url(#Gradiente_sem_nome_55);
      }

      .st58 {
        fill: url(#Gradiente_sem_nome_15);
      }

      .st59 {
        fill: url(#Gradiente_sem_nome_116);
      }

      .st60 {
        fill: url(#Gradiente_sem_nome_35);
      }

      .st61 {
        fill: url(#Gradiente_sem_nome_99);
      }

      .st62 {
        fill: url(#Gradiente_sem_nome_64);
      }

      .st63 {
        fill: url(#Gradiente_sem_nome_68);
      }

      .st64 {
        fill: url(#Gradiente_sem_nome_110);
      }

      .st65 {
        fill: url(#Gradiente_sem_nome_22);
      }

      .st66 {
        fill: url(#Gradiente_sem_nome_65);
      }

      .st67 {
        fill: url(#Gradiente_sem_nome_78);
      }

      .st68 {
        fill: url(#Gradiente_sem_nome_91);
      }

      .st69 {
        fill: url(#Gradiente_sem_nome_52);
      }

      .st70 {
        fill: url(#Gradiente_sem_nome_60);
      }

      .st71 {
        fill: url(#Gradiente_sem_nome_33);
      }

      .st72 {
        fill: url(#Gradiente_sem_nome_24);
      }

      .st73 {
        fill: url(#Gradiente_sem_nome_77);
      }

      .st74 {
        fill: url(#Gradiente_sem_nome_50);
      }

      .st75 {
        fill: url(#Gradiente_sem_nome_115);
      }

      .st76 {
        fill: url(#Gradiente_sem_nome_108);
      }

      .st77 {
        fill: url(#Gradiente_sem_nome_80);
      }

      .st78 {
        fill: url(#Gradiente_sem_nome_71);
      }

      .st79 {
        fill: url(#Gradiente_sem_nome_45);
      }

      .st80 {
        fill: url(#Gradiente_sem_nome_7);
      }

      .st81 {
        fill: url(#Gradiente_sem_nome_119);
      }

      .st82 {
        fill: url(#Gradiente_sem_nome_40);
      }

      .st83 {
        fill: url(#Gradiente_sem_nome_93);
      }

      .st84 {
        fill: url(#Gradiente_sem_nome_94);
      }

      .st85 {
        fill: url(#Gradiente_sem_nome_36);
      }

      .st86 {
        fill: url(#Gradiente_sem_nome_4);
      }

      .st87 {
        fill: url(#Gradiente_sem_nome_54);
      }

      .st88 {
        fill: url(#Gradiente_sem_nome_103);
      }

      .st89 {
        fill: url(#Gradiente_sem_nome_16);
      }

      .st90 {
        fill: url(#Gradiente_sem_nome_106);
      }

      .st91 {
        fill: url(#Gradiente_sem_nome_6);
      }

      .st92 {
        fill: url(#Gradiente_sem_nome_30);
      }

      .st93 {
        fill: url(#Gradiente_sem_nome_10);
      }

      .st94 {
        fill: url(#Gradiente_sem_nome_29);
      }

      .st95 {
        fill: url(#Gradiente_sem_nome_97);
      }

      .st96 {
        fill: url(#Gradiente_sem_nome_69);
      }

      .st97 {
        fill: url(#Gradiente_sem_nome_20);
      }

      .st98 {
        fill: url(#Gradiente_sem_nome_107);
      }

      .st99 {
        fill: url(#Gradiente_sem_nome_43);
      }

      .st100 {
        fill: url(#Gradiente_sem_nome_51);
      }

      .st101 {
        fill: url(#Gradiente_sem_nome_63);
      }

      .st102 {
        fill: url(#Gradiente_sem_nome_81);
      }

      .st103 {
        fill: url(#Gradiente_sem_nome_56);
      }

      .st104 {
        fill: url(#Gradiente_sem_nome_96);
      }

      .st105 {
        fill: url(#Gradiente_sem_nome_88);
      }

      .st106 {
        fill: url(#Gradiente_sem_nome_8);
      }

      .st107 {
        fill: url(#Gradiente_sem_nome_49);
      }

      .st108 {
        fill: url(#Gradiente_sem_nome_18);
      }

      .st109 {
        fill: url(#Gradiente_sem_nome_62);
      }

      .st110 {
        fill: url(#Gradiente_sem_nome_111);
      }

      .st111 {
        fill: url(#Gradiente_sem_nome_41);
      }

      .st112 {
        fill: url(#Gradiente_sem_nome_44);
      }

      .st113 {
        fill: url(#Gradiente_sem_nome_28);
      }

      .st114 {
        fill: url(#Gradiente_sem_nome_117);
      }

      .st115 {
        fill: url(#Gradiente_sem_nome_14);
      }

      .st116 {
        fill: url(#Gradiente_sem_nome_32);
      }

      .st117 {
        fill: url(#Gradiente_sem_nome_113);
      }
    </style>
    <radialGradient id="Gradiente_sem_nome_4" data-name="Gradiente sem nome 4" cx="2265.84" cy="2826.34" fx="2265.84" fy="2826.34" r="1284.71" gradientTransform="translate(0 4999.28) scale(1 -1)" gradientUnits="userSpaceOnUse">
      <stop offset="0" stop-color="#fff"/>
      <stop offset=".98" stop-color="#ebebeb"/>
    </radialGradient>
    <linearGradient id="Gradiente_sem_nome_5" data-name="Gradiente sem nome 5" x1="1323.39" y1="3022.03" x2="1328.85" y2="3022.03" gradientTransform="translate(0 4999.28) scale(1 -1)" gradientUnits="userSpaceOnUse">
      <stop offset="0" stop-color="#fff"/>
      <stop offset=".55" stop-color="#f3f3f3"/>
      <stop offset="1" stop-color="#e7e6e6"/>
    </linearGradient>
    <linearGradient id="Gradiente_sem_nome_6" data-name="Gradiente sem nome 6" x1="1880.26" y1="3101.57" x2="2131.91" y2="3101.57" gradientTransform="translate(0 4999.28) scale(1 -1)" gradientUnits="userSpaceOnUse">
      <stop offset="0" stop-color="#fff"/>
      <stop offset=".55" stop-color="#f3f3f3"/>
      <stop offset="1" stop-color="#e7e6e6"/>
    </linearGradient>
    <linearGradient id="Gradiente_sem_nome_7" data-name="Gradiente sem nome 7" x1="2159.57" y1="3105.32" x2="2413.57" y2="3105.32" gradientTransform="translate(0 4999.28) scale(1 -1)" gradientUnits="userSpaceOnUse">
      <stop offset="0" stop-color="#fff"/>
      <stop offset=".55" stop-color="#f3f3f3"/>
      <stop offset="1" stop-color="#e7e6e6"/>
    </linearGradient>
    <linearGradient id="Gradiente_sem_nome_8" data-name="Gradiente sem nome 8" x1="1731.23" y1="2865.88" x2="1982.62" y2="2865.88" gradientTransform="translate(0 4999.28) scale(1 -1)" gradientUnits="userSpaceOnUse">
      <stop offset="0" stop-color="#fff"/>
      <stop offset=".55" stop-color="#f3f3f3"/>
      <stop offset="1" stop-color="#e7e6e6"/>
    </linearGradient>
    <linearGradient id="Gradiente_sem_nome_9" data-name="Gradiente sem nome 9" x1="2011.05" y1="2869.12" x2="2267.89" y2="2869.12" gradientTransform="translate(0 4999.28) scale(1 -1)" gradientUnits="userSpaceOnUse">
      <stop offset="0" stop-color="#fff"/>
      <stop offset=".55" stop-color="#f3f3f3"/>
      <stop offset="1" stop-color="#e7e6e6"/>
    </linearGradient>
    <linearGradient id="Gradiente_sem_nome_10" data-name="Gradiente sem nome 10" x1="2298.54" y1="2870.57" x2="2556.82" y2="2870.57" gradientTransform="translate(0 4999.28) scale(1 -1)" gradientUnits="userSpaceOnUse">
      <stop offset="0" stop-color="#fff"/>
      <stop offset=".55" stop-color="#f3f3f3"/>
      <stop offset="1" stop-color="#e7e6e6"/>
    </linearGradient>
    <linearGradient id="Gradiente_sem_nome_11" data-name="Gradiente sem nome 11" x1="1864.68" y1="2622.55" x2="2119.85" y2="2622.55" gradientTransform="translate(0 4999.28) scale(1 -1)" gradientUnits="userSpaceOnUse">
      <stop offset="0" stop-color="#fff"/>
      <stop offset=".55" stop-color="#f3f3f3"/>
      <stop offset="1" stop-color="#e7e6e6"/>
    </linearGradient>
    <linearGradient id="Gradiente_sem_nome_12" data-name="Gradiente sem nome 12" x1="2151.07" y1="2623.36" x2="2410.77" y2="2623.36" gradientTransform="translate(0 4999.28) scale(1 -1)" gradientUnits="userSpaceOnUse">
      <stop offset="0" stop-color="#fff"/>
      <stop offset=".55" stop-color="#f3f3f3"/>
      <stop offset="1" stop-color="#e7e6e6"/>
    </linearGradient>
    <linearGradient id="Gradiente_sem_nome_13" data-name="Gradiente sem nome 13" x1="1725.8" y1="2375.16" x2="1976.29" y2="2375.16" gradientTransform="translate(0 4999.28) scale(1 -1)" gradientUnits="userSpaceOnUse">
      <stop offset="0" stop-color="#fff"/>
      <stop offset=".55" stop-color="#f3f3f3"/>
      <stop offset="1" stop-color="#e7e6e6"/>
    </linearGradient>
    <linearGradient id="Gradiente_sem_nome_14" data-name="Gradiente sem nome 14" x1="2007.81" y1="2374.02" x2="2264.85" y2="2374.02" gradientTransform="translate(0 4999.28) scale(1 -1)" gradientUnits="userSpaceOnUse">
      <stop offset="0" stop-color="#fff"/>
      <stop offset=".55" stop-color="#f3f3f3"/>
      <stop offset="1" stop-color="#e7e6e6"/>
    </linearGradient>
    <linearGradient id="Gradiente_sem_nome_15" data-name="Gradiente sem nome 15" x1="2297.36" y1="2373.53" x2="2557.53" y2="2373.53" gradientTransform="translate(0 4999.28) scale(1 -1)" gradientUnits="userSpaceOnUse">
      <stop offset="0" stop-color="#fff"/>
      <stop offset=".55" stop-color="#f3f3f3"/>
      <stop offset="1" stop-color="#e7e6e6"/>
    </linearGradient>
    <linearGradient id="Gradiente_sem_nome_16" data-name="Gradiente sem nome 16" x1="1869.98" y1="2129.65" x2="2123.67" y2="2129.65" gradientTransform="translate(0 4999.28) scale(1 -1)" gradientUnits="userSpaceOnUse">
      <stop offset="0" stop-color="#fff"/>
      <stop offset=".55" stop-color="#f3f3f3"/>
      <stop offset="1" stop-color="#e7e6e6"/>
    </linearGradient>
    <linearGradient id="Gradiente_sem_nome_17" data-name="Gradiente sem nome 17" x1="2154.2" y1="2127" x2="2411.28" y2="2127" gradientTransform="translate(0 4999.28) scale(1 -1)" gradientUnits="userSpaceOnUse">
      <stop offset="0" stop-color="#fff"/>
      <stop offset=".55" stop-color="#f3f3f3"/>
      <stop offset="1" stop-color="#e7e6e6"/>
    </linearGradient>
    <linearGradient id="Gradiente_sem_nome_18" data-name="Gradiente sem nome 18" x1="2443.85" y1="3105.99" x2="2697.58" y2="3105.99" gradientTransform="translate(0 4999.28) scale(1 -1)" gradientUnits="userSpaceOnUse">
      <stop offset="0" stop-color="#fff"/>
      <stop offset=".55" stop-color="#f3f3f3"/>
      <stop offset="1" stop-color="#e7e6e6"/>
    </linearGradient>
    <linearGradient id="Gradiente_sem_nome_19" data-name="Gradiente sem nome 19" x1="2588.72" y1="2870.08" x2="2845.82" y2="2870.08" gradientTransform="translate(0 4999.28) scale(1 -1)" gradientUnits="userSpaceOnUse">
      <stop offset="0" stop-color="#fff"/>
      <stop offset=".55" stop-color="#f3f3f3"/>
      <stop offset="1" stop-color="#e7e6e6"/>
    </linearGradient>
    <linearGradient id="Gradiente_sem_nome_20" data-name="Gradiente sem nome 20" x1="2442.46" y1="2623.51" x2="2702.66" y2="2623.51" gradientTransform="translate(0 4999.28) scale(1 -1)" gradientUnits="userSpaceOnUse">
      <stop offset="0" stop-color="#fff"/>
      <stop offset=".55" stop-color="#f3f3f3"/>
      <stop offset="1" stop-color="#e7e6e6"/>
    </linearGradient>
    <linearGradient id="Gradiente_sem_nome_21" data-name="Gradiente sem nome 21" x1="2735.15" y1="2623.03" x2="2992.19" y2="2623.03" gradientTransform="translate(0 4999.28) scale(1 -1)" gradientUnits="userSpaceOnUse">
      <stop offset="0" stop-color="#fff"/>
      <stop offset=".55" stop-color="#f3f3f3"/>
      <stop offset="1" stop-color="#e7e6e6"/>
    </linearGradient>
    <linearGradient id="Gradiente_sem_nome_22" data-name="Gradiente sem nome 22" x1="1595.37" y1="3435.38" x2="1646.23" y2="3435.38" gradientTransform="translate(0 4999.28) scale(1 -1)" gradientUnits="userSpaceOnUse">
      <stop offset="0" stop-color="#fff"/>
      <stop offset=".55" stop-color="#f3f3f3"/>
      <stop offset="1" stop-color="#e7e6e6"/>
    </linearGradient>
    <linearGradient id="Gradiente_sem_nome_23" data-name="Gradiente sem nome 23" x1="2183.98" y1="3494.91" x2="2420.77" y2="3494.91" gradientTransform="translate(0 4999.28) scale(1 -1)" gradientUnits="userSpaceOnUse">
      <stop offset="0" stop-color="#fff"/>
      <stop offset=".55" stop-color="#f3f3f3"/>
      <stop offset="1" stop-color="#e7e6e6"/>
    </linearGradient>
    <linearGradient id="Gradiente_sem_nome_24" data-name="Gradiente sem nome 24" x1="2033.11" y1="3314.54" x2="2280.78" y2="3314.54" gradientTransform="translate(0 4999.28) scale(1 -1)" gradientUnits="userSpaceOnUse">
      <stop offset="0" stop-color="#fff"/>
      <stop offset=".55" stop-color="#f3f3f3"/>
      <stop offset="1" stop-color="#e7e6e6"/>
    </linearGradient>
    <linearGradient id="Gradiente_sem_nome_25" data-name="Gradiente sem nome 25" x1="2307.65" y1="3317.31" x2="2554.06" y2="3317.31" gradientTransform="translate(0 4999.28) scale(1 -1)" gradientUnits="userSpaceOnUse">
      <stop offset="0" stop-color="#fff"/>
      <stop offset=".55" stop-color="#f3f3f3"/>
      <stop offset="1" stop-color="#e7e6e6"/>
    </linearGradient>
    <linearGradient id="Gradiente_sem_nome_26" data-name="Gradiente sem nome 26" x1="1588.22" y1="2621.11" x2="1834.84" y2="2621.11" gradientTransform="translate(0 4999.28) scale(1 -1)" gradientUnits="userSpaceOnUse">
      <stop offset="0" stop-color="#fff"/>
      <stop offset=".55" stop-color="#f3f3f3"/>
      <stop offset="1" stop-color="#e7e6e6"/>
    </linearGradient>
    <linearGradient id="Gradiente_sem_nome_27" data-name="Gradiente sem nome 27" x1="1455.97" y1="2376.79" x2="1695.96" y2="2376.79" gradientTransform="translate(0 4999.28) scale(1 -1)" gradientUnits="userSpaceOnUse">
      <stop offset="0" stop-color="#fff"/>
      <stop offset=".55" stop-color="#f3f3f3"/>
      <stop offset="1" stop-color="#e7e6e6"/>
    </linearGradient>
    <linearGradient id="Gradiente_sem_nome_28" data-name="Gradiente sem nome 28" x1="2447.93" y1="3495.66" x2="2683.34" y2="3495.66" gradientTransform="translate(0 4999.28) scale(1 -1)" gradientUnits="userSpaceOnUse">
      <stop offset="0" stop-color="#fff"/>
      <stop offset=".55" stop-color="#f3f3f3"/>
      <stop offset="1" stop-color="#e7e6e6"/>
    </linearGradient>
    <linearGradient id="Gradiente_sem_nome_29" data-name="Gradiente sem nome 29" x1="2583.79" y1="3316.44" x2="2830.23" y2="3316.44" gradientTransform="translate(0 4999.28) scale(1 -1)" gradientUnits="userSpaceOnUse">
      <stop offset="0" stop-color="#fff"/>
      <stop offset=".55" stop-color="#f3f3f3"/>
      <stop offset="1" stop-color="#e7e6e6"/>
    </linearGradient>
    <linearGradient id="Gradiente_sem_nome_30" data-name="Gradiente sem nome 30" x1="2727.77" y1="3103.74" x2="2980.18" y2="3103.74" gradientTransform="translate(0 4999.28) scale(1 -1)" gradientUnits="userSpaceOnUse">
      <stop offset="0" stop-color="#fff"/>
      <stop offset=".55" stop-color="#f3f3f3"/>
      <stop offset="1" stop-color="#e7e6e6"/>
    </linearGradient>
    <linearGradient id="Gradiente_sem_nome_31" data-name="Gradiente sem nome 31" x1="2876.37" y1="2867.43" x2="3130.07" y2="2867.43" gradientTransform="translate(0 4999.28) scale(1 -1)" gradientUnits="userSpaceOnUse">
      <stop offset="0" stop-color="#fff"/>
      <stop offset=".55" stop-color="#f3f3f3"/>
      <stop offset="1" stop-color="#e7e6e6"/>
    </linearGradient>
    <linearGradient id="Gradiente_sem_nome_32" data-name="Gradiente sem nome 32" x1="2589.22" y1="2373.69" x2="2848.92" y2="2373.69" gradientTransform="translate(0 4999.28) scale(1 -1)" gradientUnits="userSpaceOnUse">
      <stop offset="0" stop-color="#fff"/>
      <stop offset=".55" stop-color="#f3f3f3"/>
      <stop offset="1" stop-color="#e7e6e6"/>
    </linearGradient>
    <linearGradient id="Gradiente_sem_nome_33" data-name="Gradiente sem nome 33" x1="2880.14" y1="2374.49" x2="3135.3" y2="2374.49" gradientTransform="translate(0 4999.28) scale(1 -1)" gradientUnits="userSpaceOnUse">
      <stop offset="0" stop-color="#fff"/>
      <stop offset=".55" stop-color="#f3f3f3"/>
      <stop offset="1" stop-color="#e7e6e6"/>
    </linearGradient>
    <linearGradient id="Gradiente_sem_nome_34" data-name="Gradiente sem nome 34" x1="2443.19" y1="2126.51" x2="2701.45" y2="2126.51" gradientTransform="translate(0 4999.28) scale(1 -1)" gradientUnits="userSpaceOnUse">
      <stop offset="0" stop-color="#fff"/>
      <stop offset=".55" stop-color="#f3f3f3"/>
      <stop offset="1" stop-color="#e7e6e6"/>
    </linearGradient>
    <linearGradient id="Gradiente_sem_nome_35" data-name="Gradiente sem nome 35" x1="2732.09" y1="2127.96" x2="2988.92" y2="2127.96" gradientTransform="translate(0 4999.28) scale(1 -1)" gradientUnits="userSpaceOnUse">
      <stop offset="0" stop-color="#fff"/>
      <stop offset=".55" stop-color="#f3f3f3"/>
      <stop offset="1" stop-color="#e7e6e6"/>
    </linearGradient>
    <linearGradient id="Gradiente_sem_nome_36" data-name="Gradiente sem nome 36" x1="3672.63" y1="1975.44" x2="3674.18" y2="1975.44" gradientTransform="translate(0 4999.28) scale(1 -1)" gradientUnits="userSpaceOnUse">
      <stop offset="0" stop-color="#fff"/>
      <stop offset=".55" stop-color="#f3f3f3"/>
      <stop offset="1" stop-color="#e7e6e6"/>
    </linearGradient>
    <linearGradient id="Gradiente_sem_nome_37" data-name="Gradiente sem nome 37" x1="3510.47" y1="1748.78" x2="3572.48" y2="1748.78" gradientTransform="translate(0 4999.28) scale(1 -1)" gradientUnits="userSpaceOnUse">
      <stop offset="0" stop-color="#fff"/>
      <stop offset=".55" stop-color="#f3f3f3"/>
      <stop offset="1" stop-color="#e7e6e6"/>
    </linearGradient>
    <linearGradient id="Gradiente_sem_nome_38" data-name="Gradiente sem nome 38" x1="3353.77" y1="1562.55" x2="3403.35" y2="1562.55" gradientTransform="translate(0 4999.28) scale(1 -1)" gradientUnits="userSpaceOnUse">
      <stop offset="0" stop-color="#fff"/>
      <stop offset=".55" stop-color="#f3f3f3"/>
      <stop offset="1" stop-color="#e7e6e6"/>
    </linearGradient>
    <linearGradient id="Gradiente_sem_nome_39" data-name="Gradiente sem nome 39" x1="1595.72" y1="2133.66" x2="1842" y2="2133.66" gradientTransform="translate(0 4999.28) scale(1 -1)" gradientUnits="userSpaceOnUse">
      <stop offset="0" stop-color="#fff"/>
      <stop offset=".55" stop-color="#f3f3f3"/>
      <stop offset="1" stop-color="#e7e6e6"/>
    </linearGradient>
    <linearGradient id="Gradiente_sem_nome_40" data-name="Gradiente sem nome 40" x1="1744.93" y1="1898.99" x2="1993.09" y2="1898.99" gradientTransform="translate(0 4999.28) scale(1 -1)" gradientUnits="userSpaceOnUse">
      <stop offset="0" stop-color="#fff"/>
      <stop offset=".55" stop-color="#f3f3f3"/>
      <stop offset="1" stop-color="#e7e6e6"/>
    </linearGradient>
    <linearGradient id="Gradiente_sem_nome_41" data-name="Gradiente sem nome 41" x1="2019.86" y1="1893.48" x2="2272.26" y2="1893.48" gradientTransform="translate(0 4999.28) scale(1 -1)" gradientUnits="userSpaceOnUse">
      <stop offset="0" stop-color="#fff"/>
      <stop offset=".55" stop-color="#f3f3f3"/>
      <stop offset="1" stop-color="#e7e6e6"/>
    </linearGradient>
    <linearGradient id="Gradiente_sem_nome_42" data-name="Gradiente sem nome 42" x1="2302.43" y1="1891.25" x2="2556.13" y2="1891.25" gradientTransform="translate(0 4999.28) scale(1 -1)" gradientUnits="userSpaceOnUse">
      <stop offset="0" stop-color="#fff"/>
      <stop offset=".55" stop-color="#f3f3f3"/>
      <stop offset="1" stop-color="#e7e6e6"/>
    </linearGradient>
    <linearGradient id="Gradiente_sem_nome_43" data-name="Gradiente sem nome 43" x1="1236.83" y1="2160.56" x2="1317.69" y2="2160.56" gradientTransform="translate(0 4999.28) scale(1 -1)" gradientUnits="userSpaceOnUse">
      <stop offset="0" stop-color="#fff"/>
      <stop offset=".55" stop-color="#f3f3f3"/>
      <stop offset="1" stop-color="#e7e6e6"/>
    </linearGradient>
    <linearGradient id="Gradiente_sem_nome_44" data-name="Gradiente sem nome 44" x1="1303.64" y1="1929.58" x2="1463.96" y2="1929.58" gradientTransform="translate(0 4999.28) scale(1 -1)" gradientUnits="userSpaceOnUse">
      <stop offset="0" stop-color="#fff"/>
      <stop offset=".55" stop-color="#f3f3f3"/>
      <stop offset="1" stop-color="#e7e6e6"/>
    </linearGradient>
    <linearGradient id="Gradiente_sem_nome_45" data-name="Gradiente sem nome 45" x1="2052.88" y1="3723.16" x2="2200.47" y2="3723.16" gradientTransform="translate(0 4999.28) scale(1 -1)" gradientUnits="userSpaceOnUse">
      <stop offset="0" stop-color="#fff"/>
      <stop offset=".55" stop-color="#f3f3f3"/>
      <stop offset="1" stop-color="#e7e6e6"/>
    </linearGradient>
    <linearGradient id="Gradiente_sem_nome_46" data-name="Gradiente sem nome 46" x1="2223.06" y1="3740.9" x2="2431.5" y2="3740.9" gradientTransform="translate(0 4999.28) scale(1 -1)" gradientUnits="userSpaceOnUse">
      <stop offset="0" stop-color="#fff"/>
      <stop offset=".55" stop-color="#f3f3f3"/>
      <stop offset="1" stop-color="#e7e6e6"/>
    </linearGradient>
    <linearGradient id="Gradiente_sem_nome_47" data-name="Gradiente sem nome 47" x1="1837.86" y1="3628.5" x2="2063.73" y2="3628.5" gradientTransform="translate(0 4999.28) scale(1 -1)" gradientUnits="userSpaceOnUse">
      <stop offset="0" stop-color="#fff"/>
      <stop offset=".55" stop-color="#f3f3f3"/>
      <stop offset="1" stop-color="#e7e6e6"/>
    </linearGradient>
    <linearGradient id="Gradiente_sem_nome_48" data-name="Gradiente sem nome 48" x1="2078.59" y1="3640.39" x2="2304.6" y2="3640.39" gradientTransform="translate(0 4999.28) scale(1 -1)" gradientUnits="userSpaceOnUse">
      <stop offset="0" stop-color="#fff"/>
      <stop offset=".55" stop-color="#f3f3f3"/>
      <stop offset="1" stop-color="#e7e6e6"/>
    </linearGradient>
    <linearGradient id="Gradiente_sem_nome_49" data-name="Gradiente sem nome 49" x1="2326.73" y1="3642.2" x2="2548.67" y2="3642.2" gradientTransform="translate(0 4999.28) scale(1 -1)" gradientUnits="userSpaceOnUse">
      <stop offset="0" stop-color="#fff"/>
      <stop offset=".55" stop-color="#f3f3f3"/>
      <stop offset="1" stop-color="#e7e6e6"/>
    </linearGradient>
    <linearGradient id="Gradiente_sem_nome_50" data-name="Gradiente sem nome 50" x1="1671.31" y1="3484.55" x2="1908.36" y2="3484.55" gradientTransform="translate(0 4999.28) scale(1 -1)" gradientUnits="userSpaceOnUse">
      <stop offset="0" stop-color="#fff"/>
      <stop offset=".55" stop-color="#f3f3f3"/>
      <stop offset="1" stop-color="#e7e6e6"/>
    </linearGradient>
    <linearGradient id="Gradiente_sem_nome_51" data-name="Gradiente sem nome 51" x1="1923.78" y1="3491.21" x2="2162.34" y2="3491.21" gradientTransform="translate(0 4999.28) scale(1 -1)" gradientUnits="userSpaceOnUse">
      <stop offset="0" stop-color="#fff"/>
      <stop offset=".55" stop-color="#f3f3f3"/>
      <stop offset="1" stop-color="#e7e6e6"/>
    </linearGradient>
    <linearGradient id="Gradiente_sem_nome_52" data-name="Gradiente sem nome 52" x1="1426.71" y1="3249.17" x2="1489.54" y2="3249.17" gradientTransform="translate(0 4999.28) scale(1 -1)" gradientUnits="userSpaceOnUse">
      <stop offset="0" stop-color="#fff"/>
      <stop offset=".55" stop-color="#f3f3f3"/>
      <stop offset="1" stop-color="#e7e6e6"/>
    </linearGradient>
    <linearGradient id="Gradiente_sem_nome_53" data-name="Gradiente sem nome 53" x1="1510.12" y1="3298.68" x2="1749.08" y2="3298.68" gradientTransform="translate(0 4999.28) scale(1 -1)" gradientUnits="userSpaceOnUse">
      <stop offset="0" stop-color="#fff"/>
      <stop offset=".55" stop-color="#f3f3f3"/>
      <stop offset="1" stop-color="#e7e6e6"/>
    </linearGradient>
    <linearGradient id="Gradiente_sem_nome_54" data-name="Gradiente sem nome 54" x1="1765.82" y1="3308.38" x2="2011.27" y2="3308.38" gradientTransform="translate(0 4999.28) scale(1 -1)" gradientUnits="userSpaceOnUse">
      <stop offset="0" stop-color="#fff"/>
      <stop offset=".55" stop-color="#f3f3f3"/>
      <stop offset="1" stop-color="#e7e6e6"/>
    </linearGradient>
    <linearGradient id="Gradiente_sem_nome_55" data-name="Gradiente sem nome 55" x1="1356.93" y1="3083.92" x2="1591.01" y2="3083.92" gradientTransform="translate(0 4999.28) scale(1 -1)" gradientUnits="userSpaceOnUse">
      <stop offset="0" stop-color="#fff"/>
      <stop offset=".55" stop-color="#f3f3f3"/>
      <stop offset="1" stop-color="#e7e6e6"/>
    </linearGradient>
    <linearGradient id="Gradiente_sem_nome_56" data-name="Gradiente sem nome 56" x1="1610.87" y1="3094.24" x2="1856.21" y2="3094.24" gradientTransform="translate(0 4999.28) scale(1 -1)" gradientUnits="userSpaceOnUse">
      <stop offset="0" stop-color="#fff"/>
      <stop offset=".55" stop-color="#f3f3f3"/>
      <stop offset="1" stop-color="#e7e6e6"/>
    </linearGradient>
    <linearGradient id="Gradiente_sem_nome_57" data-name="Gradiente sem nome 57" x1="1243.12" y1="2852.91" x2="1441.18" y2="2852.91" gradientTransform="translate(0 4999.28) scale(1 -1)" gradientUnits="userSpaceOnUse">
      <stop offset="0" stop-color="#fff"/>
      <stop offset=".55" stop-color="#f3f3f3"/>
      <stop offset="1" stop-color="#e7e6e6"/>
    </linearGradient>
    <linearGradient id="Gradiente_sem_nome_58" data-name="Gradiente sem nome 58" x1="1463.61" y1="2860.43" x2="1705.55" y2="2860.43" gradientTransform="translate(0 4999.28) scale(1 -1)" gradientUnits="userSpaceOnUse">
      <stop offset="0" stop-color="#fff"/>
      <stop offset=".55" stop-color="#f3f3f3"/>
      <stop offset="1" stop-color="#e7e6e6"/>
    </linearGradient>
    <linearGradient id="Gradiente_sem_nome_59" data-name="Gradiente sem nome 59" x1="1215.29" y1="2611.18" x2="1304.98" y2="2611.18" gradientTransform="translate(0 4999.28) scale(1 -1)" gradientUnits="userSpaceOnUse">
      <stop offset="0" stop-color="#fff"/>
      <stop offset=".55" stop-color="#f3f3f3"/>
      <stop offset="1" stop-color="#e7e6e6"/>
    </linearGradient>
    <linearGradient id="Gradiente_sem_nome_60" data-name="Gradiente sem nome 60" x1="1328.64" y1="2619" x2="1560.28" y2="2619" gradientTransform="translate(0 4999.28) scale(1 -1)" gradientUnits="userSpaceOnUse">
      <stop offset="0" stop-color="#fff"/>
      <stop offset=".55" stop-color="#f3f3f3"/>
      <stop offset="1" stop-color="#e7e6e6"/>
    </linearGradient>
    <linearGradient id="Gradiente_sem_nome_61" data-name="Gradiente sem nome 61" x1="2454.43" y1="3742.27" x2="2660.52" y2="3742.27" gradientTransform="translate(0 4999.28) scale(1 -1)" gradientUnits="userSpaceOnUse">
      <stop offset="0" stop-color="#fff"/>
      <stop offset=".55" stop-color="#f3f3f3"/>
      <stop offset="1" stop-color="#e7e6e6"/>
    </linearGradient>
    <linearGradient id="Gradiente_sem_nome_62" data-name="Gradiente sem nome 62" x1="2680.89" y1="3735.16" x2="2886" y2="3735.16" gradientTransform="translate(0 4999.28) scale(1 -1)" gradientUnits="userSpaceOnUse">
      <stop offset="0" stop-color="#fff"/>
      <stop offset=".55" stop-color="#f3f3f3"/>
      <stop offset="1" stop-color="#e7e6e6"/>
    </linearGradient>
    <linearGradient id="Gradiente_sem_nome_63" data-name="Gradiente sem nome 63" x1="2574.67" y1="3641.53" x2="2797.74" y2="3641.53" gradientTransform="translate(0 4999.28) scale(1 -1)" gradientUnits="userSpaceOnUse">
      <stop offset="0" stop-color="#fff"/>
      <stop offset=".55" stop-color="#f3f3f3"/>
      <stop offset="1" stop-color="#e7e6e6"/>
    </linearGradient>
    <linearGradient id="Gradiente_sem_nome_64" data-name="Gradiente sem nome 64" x1="2816.96" y1="3638.66" x2="3044.01" y2="3638.66" gradientTransform="translate(0 4999.28) scale(1 -1)" gradientUnits="userSpaceOnUse">
      <stop offset="0" stop-color="#fff"/>
      <stop offset=".55" stop-color="#f3f3f3"/>
      <stop offset="1" stop-color="#e7e6e6"/>
    </linearGradient>
    <linearGradient id="Gradiente_sem_nome_65" data-name="Gradiente sem nome 65" x1="3059.69" y1="3607.38" x2="3217.94" y2="3607.38" gradientTransform="translate(0 4999.28) scale(1 -1)" gradientUnits="userSpaceOnUse">
      <stop offset="0" stop-color="#fff"/>
      <stop offset=".55" stop-color="#f3f3f3"/>
      <stop offset="1" stop-color="#e7e6e6"/>
    </linearGradient>
    <linearGradient id="Gradiente_sem_nome_66" data-name="Gradiente sem nome 66" x1="2708.82" y1="3493.44" x2="2946.13" y2="3493.44" gradientTransform="translate(0 4999.28) scale(1 -1)" gradientUnits="userSpaceOnUse">
      <stop offset="0" stop-color="#fff"/>
      <stop offset=".55" stop-color="#f3f3f3"/>
      <stop offset="1" stop-color="#e7e6e6"/>
    </linearGradient>
    <linearGradient id="Gradiente_sem_nome_67" data-name="Gradiente sem nome 67" x1="2965.4" y1="3488.26" x2="3202.98" y2="3488.26" gradientTransform="translate(0 4999.28) scale(1 -1)" gradientUnits="userSpaceOnUse">
      <stop offset="0" stop-color="#fff"/>
      <stop offset=".55" stop-color="#f3f3f3"/>
      <stop offset="1" stop-color="#e7e6e6"/>
    </linearGradient>
    <linearGradient id="Gradiente_sem_nome_68" data-name="Gradiente sem nome 68" x1="3215.87" y1="3467.38" x2="3409.85" y2="3467.38" gradientTransform="translate(0 4999.28) scale(1 -1)" gradientUnits="userSpaceOnUse">
      <stop offset="0" stop-color="#fff"/>
      <stop offset=".55" stop-color="#f3f3f3"/>
      <stop offset="1" stop-color="#e7e6e6"/>
    </linearGradient>
    <linearGradient id="Gradiente_sem_nome_69" data-name="Gradiente sem nome 69" x1="2855.43" y1="3311.87" x2="3101.71" y2="3311.87" gradientTransform="translate(0 4999.28) scale(1 -1)" gradientUnits="userSpaceOnUse">
      <stop offset="0" stop-color="#fff"/>
      <stop offset=".55" stop-color="#f3f3f3"/>
      <stop offset="1" stop-color="#e7e6e6"/>
    </linearGradient>
    <linearGradient id="Gradiente_sem_nome_70" data-name="Gradiente sem nome 70" x1="3121.72" y1="3303.95" x2="3363.79" y2="3303.95" gradientTransform="translate(0 4999.28) scale(1 -1)" gradientUnits="userSpaceOnUse">
      <stop offset="0" stop-color="#fff"/>
      <stop offset=".55" stop-color="#f3f3f3"/>
      <stop offset="1" stop-color="#e7e6e6"/>
    </linearGradient>
    <linearGradient id="Gradiente_sem_nome_71" data-name="Gradiente sem nome 71" x1="3378.65" y1="3283.7" x2="3573.07" y2="3283.7" gradientTransform="translate(0 4999.28) scale(1 -1)" gradientUnits="userSpaceOnUse">
      <stop offset="0" stop-color="#fff"/>
      <stop offset=".55" stop-color="#f3f3f3"/>
      <stop offset="1" stop-color="#e7e6e6"/>
    </linearGradient>
    <linearGradient id="Gradiente_sem_nome_72" data-name="Gradiente sem nome 72" x1="3006.98" y1="3098.23" x2="3255.17" y2="3098.23" gradientTransform="translate(0 4999.28) scale(1 -1)" gradientUnits="userSpaceOnUse">
      <stop offset="0" stop-color="#fff"/>
      <stop offset=".55" stop-color="#f3f3f3"/>
      <stop offset="1" stop-color="#e7e6e6"/>
    </linearGradient>
    <linearGradient id="Gradiente_sem_nome_73" data-name="Gradiente sem nome 73" x1="3278" y1="3089.47" x2="3518" y2="3089.47" gradientTransform="translate(0 4999.28) scale(1 -1)" gradientUnits="userSpaceOnUse">
      <stop offset="0" stop-color="#fff"/>
      <stop offset=".55" stop-color="#f3f3f3"/>
      <stop offset="1" stop-color="#e7e6e6"/>
    </linearGradient>
    <linearGradient id="Gradiente_sem_nome_74" data-name="Gradiente sem nome 74" x1="3536.22" y1="3067.78" x2="3696.82" y2="3067.78" gradientTransform="translate(0 4999.28) scale(1 -1)" gradientUnits="userSpaceOnUse">
      <stop offset="0" stop-color="#fff"/>
      <stop offset=".55" stop-color="#f3f3f3"/>
      <stop offset="1" stop-color="#e7e6e6"/>
    </linearGradient>
    <linearGradient id="Gradiente_sem_nome_75" data-name="Gradiente sem nome 75" x1="3158.07" y1="2863.45" x2="3404.36" y2="2863.45" gradientTransform="translate(0 4999.28) scale(1 -1)" gradientUnits="userSpaceOnUse">
      <stop offset="0" stop-color="#fff"/>
      <stop offset=".55" stop-color="#f3f3f3"/>
      <stop offset="1" stop-color="#e7e6e6"/>
    </linearGradient>
    <linearGradient id="Gradiente_sem_nome_76" data-name="Gradiente sem nome 76" x1="3429.3" y1="2857.02" x2="3662.27" y2="2857.02" gradientTransform="translate(0 4999.28) scale(1 -1)" gradientUnits="userSpaceOnUse">
      <stop offset="0" stop-color="#fff"/>
      <stop offset=".55" stop-color="#f3f3f3"/>
      <stop offset="1" stop-color="#e7e6e6"/>
    </linearGradient>
    <linearGradient id="Gradiente_sem_nome_77" data-name="Gradiente sem nome 77" x1="3682.42" y1="2836.6" x2="3763.46" y2="2836.6" gradientTransform="translate(0 4999.28) scale(1 -1)" gradientUnits="userSpaceOnUse">
      <stop offset="0" stop-color="#fff"/>
      <stop offset=".55" stop-color="#f3f3f3"/>
      <stop offset="1" stop-color="#e7e6e6"/>
    </linearGradient>
    <linearGradient id="Gradiente_sem_nome_78" data-name="Gradiente sem nome 78" x1="3023.74" y1="2621.9" x2="3274.22" y2="2621.9" gradientTransform="translate(0 4999.28) scale(1 -1)" gradientUnits="userSpaceOnUse">
      <stop offset="0" stop-color="#fff"/>
      <stop offset=".55" stop-color="#f3f3f3"/>
      <stop offset="1" stop-color="#e7e6e6"/>
    </linearGradient>
    <linearGradient id="Gradiente_sem_nome_79" data-name="Gradiente sem nome 79" x1="3304.07" y1="2620.28" x2="3544.05" y2="2620.28" gradientTransform="translate(0 4999.28) scale(1 -1)" gradientUnits="userSpaceOnUse">
      <stop offset="0" stop-color="#fff"/>
      <stop offset=".55" stop-color="#f3f3f3"/>
      <stop offset="1" stop-color="#e7e6e6"/>
    </linearGradient>
    <linearGradient id="Gradiente_sem_nome_80" data-name="Gradiente sem nome 80" x1="1216.56" y1="2379.48" x2="1428.35" y2="2379.48" gradientTransform="translate(0 4999.28) scale(1 -1)" gradientUnits="userSpaceOnUse">
      <stop offset="0" stop-color="#fff"/>
      <stop offset=".55" stop-color="#f3f3f3"/>
      <stop offset="1" stop-color="#e7e6e6"/>
    </linearGradient>
    <linearGradient id="Gradiente_sem_nome_81" data-name="Gradiente sem nome 81" x1="1337.83" y1="2140.08" x2="1570.82" y2="2140.08" gradientTransform="translate(0 4999.28) scale(1 -1)" gradientUnits="userSpaceOnUse">
      <stop offset="0" stop-color="#fff"/>
      <stop offset=".55" stop-color="#f3f3f3"/>
      <stop offset="1" stop-color="#e7e6e6"/>
    </linearGradient>
    <linearGradient id="Gradiente_sem_nome_82" data-name="Gradiente sem nome 82" x1="1482.17" y1="1907.75" x2="1722.14" y2="1907.75" gradientTransform="translate(0 4999.28) scale(1 -1)" gradientUnits="userSpaceOnUse">
      <stop offset="0" stop-color="#fff"/>
      <stop offset=".55" stop-color="#f3f3f3"/>
      <stop offset="1" stop-color="#e7e6e6"/>
    </linearGradient>
    <linearGradient id="Gradiente_sem_nome_83" data-name="Gradiente sem nome 83" x1="1427.37" y1="1714.13" x2="1621.49" y2="1714.13" gradientTransform="translate(0 4999.28) scale(1 -1)" gradientUnits="userSpaceOnUse">
      <stop offset="0" stop-color="#fff"/>
      <stop offset=".55" stop-color="#f3f3f3"/>
      <stop offset="1" stop-color="#e7e6e6"/>
    </linearGradient>
    <linearGradient id="Gradiente_sem_nome_84" data-name="Gradiente sem nome 84" x1="1636.34" y1="1693.8" x2="1878.39" y2="1693.8" gradientTransform="translate(0 4999.28) scale(1 -1)" gradientUnits="userSpaceOnUse">
      <stop offset="0" stop-color="#fff"/>
      <stop offset=".55" stop-color="#f3f3f3"/>
      <stop offset="1" stop-color="#e7e6e6"/>
    </linearGradient>
    <linearGradient id="Gradiente_sem_nome_85" data-name="Gradiente sem nome 85" x1="1898.37" y1="1685.86" x2="2144.62" y2="1685.86" gradientTransform="translate(0 4999.28) scale(1 -1)" gradientUnits="userSpaceOnUse">
      <stop offset="0" stop-color="#fff"/>
      <stop offset=".55" stop-color="#f3f3f3"/>
      <stop offset="1" stop-color="#e7e6e6"/>
    </linearGradient>
    <linearGradient id="Gradiente_sem_nome_86" data-name="Gradiente sem nome 86" x1="2169.84" y1="1681.29" x2="2416.22" y2="1681.29" gradientTransform="translate(0 4999.28) scale(1 -1)" gradientUnits="userSpaceOnUse">
      <stop offset="0" stop-color="#fff"/>
      <stop offset=".55" stop-color="#f3f3f3"/>
      <stop offset="1" stop-color="#e7e6e6"/>
    </linearGradient>
    <linearGradient id="Gradiente_sem_nome_87" data-name="Gradiente sem nome 87" x1="1590.68" y1="1530.59" x2="1784.29" y2="1530.59" gradientTransform="translate(0 4999.28) scale(1 -1)" gradientUnits="userSpaceOnUse">
      <stop offset="0" stop-color="#fff"/>
      <stop offset=".55" stop-color="#f3f3f3"/>
      <stop offset="1" stop-color="#e7e6e6"/>
    </linearGradient>
    <linearGradient id="Gradiente_sem_nome_88" data-name="Gradiente sem nome 88" x1="1797.17" y1="1509.62" x2="2034.72" y2="1509.62" gradientTransform="translate(0 4999.28) scale(1 -1)" gradientUnits="userSpaceOnUse">
      <stop offset="0" stop-color="#fff"/>
      <stop offset=".55" stop-color="#f3f3f3"/>
      <stop offset="1" stop-color="#e7e6e6"/>
    </linearGradient>
    <linearGradient id="Gradiente_sem_nome_89" data-name="Gradiente sem nome 89" x1="2053.95" y1="1504.44" x2="2291.23" y2="1504.44" gradientTransform="translate(0 4999.28) scale(1 -1)" gradientUnits="userSpaceOnUse">
      <stop offset="0" stop-color="#fff"/>
      <stop offset=".55" stop-color="#f3f3f3"/>
      <stop offset="1" stop-color="#e7e6e6"/>
    </linearGradient>
    <linearGradient id="Gradiente_sem_nome_90" data-name="Gradiente sem nome 90" x1="2316.69" y1="1502.23" x2="2552.07" y2="1502.23" gradientTransform="translate(0 4999.28) scale(1 -1)" gradientUnits="userSpaceOnUse">
      <stop offset="0" stop-color="#fff"/>
      <stop offset=".55" stop-color="#f3f3f3"/>
      <stop offset="1" stop-color="#e7e6e6"/>
    </linearGradient>
    <linearGradient id="Gradiente_sem_nome_91" data-name="Gradiente sem nome 91" x1="1782.38" y1="1391.03" x2="1940.32" y2="1391.03" gradientTransform="translate(0 4999.28) scale(1 -1)" gradientUnits="userSpaceOnUse">
      <stop offset="0" stop-color="#fff"/>
      <stop offset=".55" stop-color="#f3f3f3"/>
      <stop offset="1" stop-color="#e7e6e6"/>
    </linearGradient>
    <linearGradient id="Gradiente_sem_nome_92" data-name="Gradiente sem nome 92" x1="1956.04" y1="1359.63" x2="2183.07" y2="1359.63" gradientTransform="translate(0 4999.28) scale(1 -1)" gradientUnits="userSpaceOnUse">
      <stop offset="0" stop-color="#fff"/>
      <stop offset=".55" stop-color="#f3f3f3"/>
      <stop offset="1" stop-color="#e7e6e6"/>
    </linearGradient>
    <linearGradient id="Gradiente_sem_nome_93" data-name="Gradiente sem nome 93" x1="2202.3" y1="1356.75" x2="2425.35" y2="1356.75" gradientTransform="translate(0 4999.28) scale(1 -1)" gradientUnits="userSpaceOnUse">
      <stop offset="0" stop-color="#fff"/>
      <stop offset=".55" stop-color="#f3f3f3"/>
      <stop offset="1" stop-color="#e7e6e6"/>
    </linearGradient>
    <linearGradient id="Gradiente_sem_nome_94" data-name="Gradiente sem nome 94" x1="2114.25" y1="1263.27" x2="2319.12" y2="1263.27" gradientTransform="translate(0 4999.28) scale(1 -1)" gradientUnits="userSpaceOnUse">
      <stop offset="0" stop-color="#fff"/>
      <stop offset=".55" stop-color="#f3f3f3"/>
      <stop offset="1" stop-color="#e7e6e6"/>
    </linearGradient>
    <linearGradient id="Gradiente_sem_nome_95" data-name="Gradiente sem nome 95" x1="2339.51" y1="1256.18" x2="2545.56" y2="1256.18" gradientTransform="translate(0 4999.28) scale(1 -1)" gradientUnits="userSpaceOnUse">
      <stop offset="0" stop-color="#fff"/>
      <stop offset=".55" stop-color="#f3f3f3"/>
      <stop offset="1" stop-color="#e7e6e6"/>
    </linearGradient>
    <linearGradient id="Gradiente_sem_nome_96" data-name="Gradiente sem nome 96" x1="3571.69" y1="2617.63" x2="3783.49" y2="2617.63" gradientTransform="translate(0 4999.28) scale(1 -1)" gradientUnits="userSpaceOnUse">
      <stop offset="0" stop-color="#fff"/>
      <stop offset=".55" stop-color="#f3f3f3"/>
      <stop offset="1" stop-color="#e7e6e6"/>
    </linearGradient>
    <linearGradient id="Gradiente_sem_nome_97" data-name="Gradiente sem nome 97" x1="3165.14" y1="2375.98" x2="3411.77" y2="2375.98" gradientTransform="translate(0 4999.28) scale(1 -1)" gradientUnits="userSpaceOnUse">
      <stop offset="0" stop-color="#fff"/>
      <stop offset=".55" stop-color="#f3f3f3"/>
      <stop offset="1" stop-color="#e7e6e6"/>
    </linearGradient>
    <linearGradient id="Gradiente_sem_nome_98" data-name="Gradiente sem nome 98" x1="3439.68" y1="2378.07" x2="3671.34" y2="2378.07" gradientTransform="translate(0 4999.28) scale(1 -1)" gradientUnits="userSpaceOnUse">
      <stop offset="0" stop-color="#fff"/>
      <stop offset=".55" stop-color="#f3f3f3"/>
      <stop offset="1" stop-color="#e7e6e6"/>
    </linearGradient>
    <linearGradient id="Gradiente_sem_nome_99" data-name="Gradiente sem nome 99" x1="3694.97" y1="2386.01" x2="3784.7" y2="2386.01" gradientTransform="translate(0 4999.28) scale(1 -1)" gradientUnits="userSpaceOnUse">
      <stop offset="0" stop-color="#fff"/>
      <stop offset=".55" stop-color="#f3f3f3"/>
      <stop offset="1" stop-color="#e7e6e6"/>
    </linearGradient>
    <linearGradient id="Gradiente_sem_nome_100" data-name="Gradiente sem nome 100" x1="3017.33" y1="2131.22" x2="3268.71" y2="2131.22" gradientTransform="translate(0 4999.28) scale(1 -1)" gradientUnits="userSpaceOnUse">
      <stop offset="0" stop-color="#fff"/>
      <stop offset=".55" stop-color="#f3f3f3"/>
      <stop offset="1" stop-color="#e7e6e6"/>
    </linearGradient>
    <linearGradient id="Gradiente_sem_nome_101" data-name="Gradiente sem nome 101" x1="3294.38" y1="2136.71" x2="3536.33" y2="2136.71" gradientTransform="translate(0 4999.28) scale(1 -1)" gradientUnits="userSpaceOnUse">
      <stop offset="0" stop-color="#fff"/>
      <stop offset=".55" stop-color="#f3f3f3"/>
      <stop offset="1" stop-color="#e7e6e6"/>
    </linearGradient>
    <linearGradient id="Gradiente_sem_nome_102" data-name="Gradiente sem nome 102" x1="3558.7" y1="2144.25" x2="3756.61" y2="2144.25" gradientTransform="translate(0 4999.28) scale(1 -1)" gradientUnits="userSpaceOnUse">
      <stop offset="0" stop-color="#fff"/>
      <stop offset=".55" stop-color="#f3f3f3"/>
      <stop offset="1" stop-color="#e7e6e6"/>
    </linearGradient>
    <linearGradient id="Gradiente_sem_nome_103" data-name="Gradiente sem nome 103" x1="2586.42" y1="1891.9" x2="2840.38" y2="1891.9" gradientTransform="translate(0 4999.28) scale(1 -1)" gradientUnits="userSpaceOnUse">
      <stop offset="0" stop-color="#fff"/>
      <stop offset=".55" stop-color="#f3f3f3"/>
      <stop offset="1" stop-color="#e7e6e6"/>
    </linearGradient>
    <linearGradient id="Gradiente_sem_nome_104" data-name="Gradiente sem nome 104" x1="2868.02" y1="1895.66" x2="3119.65" y2="1895.66" gradientTransform="translate(0 4999.28) scale(1 -1)" gradientUnits="userSpaceOnUse">
      <stop offset="0" stop-color="#fff"/>
      <stop offset=".55" stop-color="#f3f3f3"/>
      <stop offset="1" stop-color="#e7e6e6"/>
    </linearGradient>
    <linearGradient id="Gradiente_sem_nome_105" data-name="Gradiente sem nome 105" x1="3143.69" y1="1902.97" x2="3389.02" y2="1902.97" gradientTransform="translate(0 4999.28) scale(1 -1)" gradientUnits="userSpaceOnUse">
      <stop offset="0" stop-color="#fff"/>
      <stop offset=".55" stop-color="#f3f3f3"/>
      <stop offset="1" stop-color="#e7e6e6"/>
    </linearGradient>
    <linearGradient id="Gradiente_sem_nome_106" data-name="Gradiente sem nome 106" x1="3408.84" y1="1913.31" x2="3642.91" y2="1913.31" gradientTransform="translate(0 4999.28) scale(1 -1)" gradientUnits="userSpaceOnUse">
      <stop offset="0" stop-color="#fff"/>
      <stop offset=".55" stop-color="#f3f3f3"/>
      <stop offset="1" stop-color="#e7e6e6"/>
    </linearGradient>
    <linearGradient id="Gradiente_sem_nome_107" data-name="Gradiente sem nome 107" x1="2445.94" y1="1680.43" x2="2692.32" y2="1680.43" gradientTransform="translate(0 4999.28) scale(1 -1)" gradientUnits="userSpaceOnUse">
      <stop offset="0" stop-color="#fff"/>
      <stop offset=".55" stop-color="#f3f3f3"/>
      <stop offset="1" stop-color="#e7e6e6"/>
    </linearGradient>
    <linearGradient id="Gradiente_sem_nome_108" data-name="Gradiente sem nome 108" x1="2719.16" y1="1683.2" x2="2966.8" y2="1683.2" gradientTransform="translate(0 4999.28) scale(1 -1)" gradientUnits="userSpaceOnUse">
      <stop offset="0" stop-color="#fff"/>
      <stop offset=".55" stop-color="#f3f3f3"/>
      <stop offset="1" stop-color="#e7e6e6"/>
    </linearGradient>
    <linearGradient id="Gradiente_sem_nome_109" data-name="Gradiente sem nome 109" x1="2988.65" y1="1689.38" x2="3234.06" y2="1689.38" gradientTransform="translate(0 4999.28) scale(1 -1)" gradientUnits="userSpaceOnUse">
      <stop offset="0" stop-color="#fff"/>
      <stop offset=".55" stop-color="#f3f3f3"/>
      <stop offset="1" stop-color="#e7e6e6"/>
    </linearGradient>
    <linearGradient id="Gradiente_sem_nome_110" data-name="Gradiente sem nome 110" x1="3250.78" y1="1699.06" x2="3489.74" y2="1699.06" gradientTransform="translate(0 4999.28) scale(1 -1)" gradientUnits="userSpaceOnUse">
      <stop offset="0" stop-color="#fff"/>
      <stop offset=".55" stop-color="#f3f3f3"/>
      <stop offset="1" stop-color="#e7e6e6"/>
    </linearGradient>
    <linearGradient id="Gradiente_sem_nome_111" data-name="Gradiente sem nome 111" x1="2579.21" y1="1502.97" x2="2815.96" y2="1502.97" gradientTransform="translate(0 4999.28) scale(1 -1)" gradientUnits="userSpaceOnUse">
      <stop offset="0" stop-color="#fff"/>
      <stop offset=".55" stop-color="#f3f3f3"/>
      <stop offset="1" stop-color="#e7e6e6"/>
    </linearGradient>
    <linearGradient id="Gradiente_sem_nome_112" data-name="Gradiente sem nome 112" x1="2837.58" y1="1506.69" x2="3076.1" y2="1506.69" gradientTransform="translate(0 4999.28) scale(1 -1)" gradientUnits="userSpaceOnUse">
      <stop offset="0" stop-color="#fff"/>
      <stop offset=".55" stop-color="#f3f3f3"/>
      <stop offset="1" stop-color="#e7e6e6"/>
    </linearGradient>
    <linearGradient id="Gradiente_sem_nome_113" data-name="Gradiente sem nome 113" x1="3091.48" y1="1513.33" x2="3328.49" y2="1513.33" gradientTransform="translate(0 4999.28) scale(1 -1)" gradientUnits="userSpaceOnUse">
      <stop offset="0" stop-color="#fff"/>
      <stop offset=".55" stop-color="#f3f3f3"/>
      <stop offset="1" stop-color="#e7e6e6"/>
    </linearGradient>
    <linearGradient id="Gradiente_sem_nome_114" data-name="Gradiente sem nome 114" x1="2451.34" y1="1356.11" x2="2673.25" y2="1356.11" gradientTransform="translate(0 4999.28) scale(1 -1)" gradientUnits="userSpaceOnUse">
      <stop offset="0" stop-color="#fff"/>
      <stop offset=".55" stop-color="#f3f3f3"/>
      <stop offset="1" stop-color="#e7e6e6"/>
    </linearGradient>
    <linearGradient id="Gradiente_sem_nome_115" data-name="Gradiente sem nome 115" x1="2695.38" y1="1357.9" x2="2921.37" y2="1357.9" gradientTransform="translate(0 4999.28) scale(1 -1)" gradientUnits="userSpaceOnUse">
      <stop offset="0" stop-color="#fff"/>
      <stop offset=".55" stop-color="#f3f3f3"/>
      <stop offset="1" stop-color="#e7e6e6"/>
    </linearGradient>
    <linearGradient id="Gradiente_sem_nome_116" data-name="Gradiente sem nome 116" x1="2936.21" y1="1369.85" x2="3161.94" y2="1369.85" gradientTransform="translate(0 4999.28) scale(1 -1)" gradientUnits="userSpaceOnUse">
      <stop offset="0" stop-color="#fff"/>
      <stop offset=".55" stop-color="#f3f3f3"/>
      <stop offset="1" stop-color="#e7e6e6"/>
    </linearGradient>
    <linearGradient id="Gradiente_sem_nome_117" data-name="Gradiente sem nome 117" x1="2568.49" y1="1257.54" x2="2776.9" y2="1257.54" gradientTransform="translate(0 4999.28) scale(1 -1)" gradientUnits="userSpaceOnUse">
      <stop offset="0" stop-color="#fff"/>
      <stop offset=".55" stop-color="#f3f3f3"/>
      <stop offset="1" stop-color="#e7e6e6"/>
    </linearGradient>
    <linearGradient id="Gradiente_sem_nome_118" data-name="Gradiente sem nome 118" x1="2799.53" y1="1275.29" x2="2946.77" y2="1275.29" gradientTransform="translate(0 4999.28) scale(1 -1)" gradientUnits="userSpaceOnUse">
      <stop offset="0" stop-color="#fff"/>
      <stop offset=".55" stop-color="#f3f3f3"/>
      <stop offset="1" stop-color="#e7e6e6"/>
    </linearGradient>
    <radialGradient id="Gradiente_sem_nome_119" data-name="Gradiente sem nome 119" cx="2265.84" cy="2826.34" fx="2265.84" fy="2826.34" r="1284.71" gradientTransform="translate(0 4999.28) scale(1 -1)" gradientUnits="userSpaceOnUse">
      <stop offset="0" stop-color="#fff"/>
      <stop offset="1" stop-color="#666"/>
    </radialGradient>
    <radialGradient id="Gradiente_sem_nome_120" data-name="Gradiente sem nome 120" cx="2265.84" cy="2826.34" fx="2265.84" fy="2826.34" r="1284.71" gradientTransform="translate(0 4999.28) scale(1 -1)" gradientUnits="userSpaceOnUse">
      <stop offset="0" stop-color="#fff"/>
      <stop offset=".16" stop-color="#fafafa"/>
      <stop offset=".32" stop-color="#eee"/>
      <stop offset=".48" stop-color="#d9d9d9"/>
      <stop offset=".65" stop-color="#bbb"/>
      <stop offset=".82" stop-color="#969696"/>
      <stop offset=".99" stop-color="#686868"/>
      <stop offset="1" stop-color="#666"/>
    </radialGradient>
    <radialGradient id="Gradiente_sem_nome_121" data-name="Gradiente sem nome 121" cx="2201.23" cy="2899.03" fx="2201.23" fy="2899.03" r="1284.71" gradientTransform="translate(0 4999.28) scale(1 -1)" gradientUnits="userSpaceOnUse">
      <stop offset="0" stop-color="#fff"/>
      <stop offset=".14" stop-color="#fff"/>
      <stop offset="1" stop-color="#fff"/>
    </radialGradient>
  </defs>
  <circle class="st86" cx="2500" cy="2500" r="1284.71"/>
  <path class="st6" d="M1323.39,1983.38c2.34-3.83,4.18-7.96,5.46-12.26-1.84,4.07-3.66,8.16-5.46,12.26Z"/>
  <path class="st91" d="M1992.13,1774.28c-27.45,13.77-54.27,28.9-81.24,43.58-13.25,7.22-23.08,20.64-24.31,35.88-2.24,29.04-4.31,58.09-6.23,87.15-.98,14.84,6.56,29.16,19.52,36.51,25.77,14.64,51.53,29.3,77.28,43.98,15.62,7.1,28.89,6.62,44.44-.48,27.48-15.41,55-30.76,82.55-46.03,13.6-7.54,23.15-21.72,23.83-37.39,1.21-29.32,2.5-58.64,3.9-87.96.71-14.69-7.31-28.46-20.21-35.4-25.35-13.67-50.55-27.76-76.27-40.72-14.26-7.07-29.11-4.92-43.26.89h0Z"/>
  <path class="st80" d="M2268.51,1769.1c-27.59,13.42-54.51,28.38-81.59,42.8-13.34,7.1-22.99,20.64-23.7,35.93-1.29,29.33-2.5,58.66-3.62,87.99-.58,15.28,7.79,29.65,21.08,37.08,26.78,15,53.53,30.04,80.27,45.11,13.95,7.83,31.38,7.62,45.34-.08,27.58-15.23,55.18-30.41,82.82-45.53,13.61-7.44,22.93-21.69,23.17-37.34.41-29.45.83-58.9,1.29-88.35.22-15.06-8.57-28.81-21.72-35.86-26.3-14.13-52.42-28.79-79.18-42.03-14.53-7.1-29.61-5.47-44.16.27h0Z"/>
  <path class="st106" d="M1840.94,2003.06c-27.09,15.41-54.14,30.89-81.14,46.46-13.59,7.86-22.88,22.3-23.82,38.04-1.75,30.64-3.31,61.29-4.71,91.95-.7,15.37,6.84,30.42,20.14,38.36,25.93,15.47,51.87,30.91,77.83,46.35,15.59,7.43,28.78,7.13,44.35-.21,27.33-15.89,54.69-31.73,82.09-47.51,13.9-8.03,23.06-23,23.59-39.08.99-30.99,2.09-61.98,3.32-92.96.62-15.35-7.23-30.16-20.62-37.83-25.78-14.77-51.58-29.54-77.38-44.28-14.32-8.12-29.4-5.89-43.65.72h0Z"/>
  <path class="st8" d="M2246.01,2043.32c-26.78-15.16-53.57-30.29-80.38-45.38-13.84-7.76-31.11-7.36-44.9.3-27.6,15.34-55.16,30.75-82.68,46.22-13.81,7.78-23.2,22.37-23.83,38.3-1.16,31.01-2.21,62.02-3.15,93.04-.47,15.8,7.77,30.95,21.44,38.94,26.98,15.74,53.95,31.49,80.93,47.23,13.98,8.14,31.6,7.98,45.61,0,27.82-15.87,55.66-31.71,83.52-47.5,14.05-7.97,23.26-23.04,23.55-39.23.53-31.2,1.12-62.41,1.76-93.61.32-15.72-8.2-30.55-21.86-38.29v-.02Z"/>
  <path class="st93" d="M2534.04,2042.4c-27.34-15.46-54.7-30.87-82.08-46.23-13.97-7.81-31.42-7.8-45.44-.12-27.67,15.19-55.31,30.44-82.93,45.74-13.89,7.7-23.16,22.39-23.47,38.35-.57,31.21-1.1,62.42-1.58,93.63-.24,16.07,8.49,31.27,22.39,39.3,27.59,15.94,55.17,31.89,82.74,47.87,14.13,8.17,31.94,8.21,46.15.19,27.88-15.77,55.76-31.52,83.67-47.24,14.04-7.92,23.09-23.02,23.14-39.18.07-31.25.14-62.51.19-93.76.01-15.92-8.96-30.74-22.76-38.54h-.02Z"/>
  <path class="st26" d="M2012.89,2512.03c27.52-15.93,55.05-31.83,82.6-47.7,14.12-8.16,23.02-23.56,23.19-39.85.31-32.01.7-64.03,1.17-96.04.24-16.09-8.22-31.49-22.14-39.65-26.99-15.8-53.98-31.6-80.97-47.4-13.82-8.07-31.23-7.82-45.04.14-27.42,15.81-54.82,31.67-82.18,47.58-13.93,8.12-22.84,23.28-23.21,39.4-.68,31.75-1.22,63.5-1.63,95.26-.19,16.03,8.13,31.44,21.93,39.71,26.99,16.13,53.99,32.23,81.01,48.3,13.82,8.21,31.35,8.3,45.27.25Z"/>
  <path class="st56" d="M2259.26,2239.73c-27.89,15.83-55.75,31.69-83.6,47.59-14.14,8.09-23.23,23.36-23.47,39.66-.45,32.03-.82,64.07-1.12,96.1-.14,16.3,8.56,31.8,22.62,40.08,27.64,16.24,55.29,32.48,82.94,48.69,14.12,8.27,31.96,8.36,46.17.25,27.97-15.99,55.94-31.97,83.91-47.94,14.24-8.15,23.28-23.59,23.4-40,.2-32.15.42-64.29.66-96.44.11-16.29-8.69-31.72-22.78-39.91-27.59-16.02-55.19-32.02-82.79-48.01-14.08-8.14-31.81-8.08-45.93-.08h0Z"/>
  <path class="st46" d="M1953.25,2538.12c-27.02-16.09-54.02-32.21-80.99-48.36-15.63-7.55-28.87-7.63-44.56-.22-26.71,15.69-53.39,31.41-80.05,47.16-13.69,8.12-21.91,23.38-21.85,39.22.15,31.55.46,63.1.94,94.64.27,15.97,8.88,31.14,22.56,39.42,26.81,16.16,53.65,32.27,80.53,48.32,15.48,7.51,28.66,7.93,44.32.72,26.68-15.39,53.36-30.77,80.05-46.13,13.86-8,22.23-23.27,22.09-39.2-.27-31.88-.43-63.76-.47-95.63-.03-16.18-8.63-31.63-22.56-39.94h0Z"/>
  <path class="st115" d="M2031.2,2712.33c27.5,16.2,55.02,32.35,82.57,48.46,13.91,8.13,31.51,8.47,45.57.5,27.51-15.62,55.02-31.24,82.53-46.87,14.1-8.02,22.92-23.35,22.91-39.56-.03-32.1,0-64.19.07-96.29.03-16.37-8.81-31.89-22.93-40.19-27.65-16.22-55.3-32.46-82.93-48.72-14.01-8.23-31.72-8.33-45.81-.23-27.56,15.87-55.1,31.76-82.64,47.67-14.03,8.13-22.73,23.5-22.73,39.69.03,31.91.16,63.83.4,95.74.14,16.23,9.02,31.54,22.99,39.79h0Z"/>
  <path class="st58" d="M2449.85,2762.21c27.92-15.76,55.82-31.55,83.71-47.35,14.19-8.05,23.25-23.38,23.37-39.71.21-32.15.41-64.29.6-96.44.08-16.41-8.79-31.95-22.95-40.24-27.86-16.28-55.72-32.55-83.58-48.83-14.18-8.27-32.08-8.37-46.35-.24-27.98,15.97-55.95,31.95-83.92,47.93-14.21,8.13-23.19,23.57-23.24,39.95-.09,32.11-.13,64.22-.13,96.33.01,16.33,8.96,31.73,23.06,39.95,27.76,16.15,55.53,32.27,83.32,48.36,14.11,8.16,31.9,8.3,46.11.29h0Z"/>
  <path class="st89" d="M2022.47,3001.81c26.52-14.65,53.02-29.32,79.51-44.01,13.62-7.56,21.99-22.28,21.68-37.83-.61-31.1-1.14-62.19-1.58-93.29-.25-16.15-9.31-31.26-23.22-39.4-27.53-16.08-55.03-32.2-82.5-48.37-13.74-8.09-31.18-8.54-45.08-.58-26.68,15.32-53.37,30.64-80.04,45.97-13.59,7.82-21.67,22.83-21.24,38.44.85,30.85,1.85,61.7,2.99,92.54.62,15.85,9.85,30.46,23.49,38.41,27.17,15.8,54.37,31.52,81.63,47.17,15.45,7.24,28.69,7.84,44.37.96h0Z"/>
  <path class="st33" d="M2178.9,2957.56c27.47,15.66,54.96,31.27,82.49,46.82,13.86,7.81,31.25,8.19,45.26.54,27.31-14.96,54.6-29.96,81.87-44.99,13.83-7.63,22.76-22.36,22.76-38.19-.02-31.23-.01-62.47,0-93.7,0-16.19-9-31.37-22.98-39.45-27.77-16.05-55.53-32.13-83.26-48.24-14.05-8.15-31.8-8.4-45.97-.38-27.5,15.58-55,31.16-82.5,46.73-13.89,7.87-22.56,22.95-22.37,38.91.39,31.13.85,62.26,1.39,93.38.31,15.96,9.51,30.7,23.3,38.57h.01Z"/>
  <path class="st108" d="M2548.22,1767.82c-27.26,13.12-53.86,27.73-80.63,41.81-13.29,6.97-22.54,20.6-22.74,35.78-.35,29.44-.68,58.89-1,88.33-.15,15.56,8.8,29.92,22.29,37.44,27.35,15.28,54.67,30.61,81.97,45.98,13.96,7.85,31.46,8.03,45.52.32,27.24-14.96,54.51-29.89,81.8-44.77,13.49-7.35,22.34-21.62,22.15-37.08-.4-29.42-.84-58.84-1.33-88.25-.29-15.25-9.62-28.94-22.87-36.11-26.83-14.51-53.48-29.58-80.81-43.11-15.44-6.17-28.82-6.34-44.34-.35h0Z"/>
  <path class="st43" d="M2821.14,2043.88c-27.47-15.67-54.97-31.28-82.5-46.83-13.86-7.81-31.26-8.19-45.27-.54-27.31,14.96-54.6,29.97-81.88,45.01-13.83,7.63-22.76,22.36-22.76,38.2.02,31.24.01,62.48-.01,93.72,0,16.19,9,31.37,22.98,39.46,27.77,16.05,55.53,32.13,83.27,48.25,14.05,8.16,31.8,8.4,45.97.38,27.5-15.59,55-31.17,82.51-46.74,13.89-7.87,22.56-22.95,22.37-38.92-.39-31.14-.85-62.27-1.39-93.41-.3-15.97-9.51-30.71-23.3-38.59h0Z"/>
  <path class="st97" d="M2550.15,2239.29c-27.92,15.77-55.82,31.55-83.72,47.36-14.19,8.06-23.25,23.38-23.37,39.71-.21,32.15-.41,64.3-.6,96.45-.08,16.41,8.79,31.95,22.95,40.24,27.86,16.28,55.72,32.55,83.58,48.83,14.18,8.27,32.08,8.37,46.35.24,27.98-15.97,55.95-31.95,83.93-47.93,14.21-8.13,23.19-23.58,23.25-39.95.09-32.11.13-64.23.14-96.34-.01-16.34-8.96-31.74-23.06-39.95-27.76-16.15-55.54-32.27-83.33-48.36-14.11-8.16-31.9-8.3-46.11-.29h0Z"/>
  <path class="st5" d="M2968.82,2289.17c-27.5-16.2-55.02-32.35-82.57-48.47-13.91-8.13-31.51-8.47-45.58-.5-27.52,15.62-55.03,31.24-82.54,46.88-14.1,8.03-22.92,23.35-22.91,39.56.02,32.1,0,64.2-.07,96.29-.03,16.37,8.81,31.9,22.93,40.19,27.65,16.22,55.3,32.46,82.93,48.72,14.01,8.23,31.72,8.33,45.81.23,27.56-15.87,55.11-31.76,82.64-47.67,14.03-8.13,22.73-23.5,22.73-39.69-.03-31.92-.16-63.83-.39-95.75-.14-16.23-9.01-31.54-22.98-39.79h0Z"/>
  <path class="st65" d="M1644.25,1547.97c.65-2.66,1.32-5.31,1.98-7.96-17.38,15.47-34.34,31.4-50.86,47.78,7.58-3.65,15.16-7.29,22.75-10.9,11.9-5.64,22.78-15.82,26.12-28.92h.01Z"/>
  <path class="st29" d="M2214.25,1443.91c-10.83,4.19-21.6,12.86-23.19,25.06-2.46,21.12-4.77,42.25-6.96,63.4-1.24,12.33,7.43,22.63,18.19,27.43,24.57,11.17,49.11,22.4,73.62,33.68,13.32,6.04,29.2,5.66,42.51-.22,26.03-11.58,52.11-23.06,78.23-34.44,11.22-4.81,21.46-14.74,21.98-27.6.67-21.1,1.38-42.2,2.13-63.29.32-12.64-9.38-19.66-19.42-24.84-23.71-9.64-47.45-19.19-71.23-28.65-12.7-4.94-27.38-4.6-40.07.17-25.32,9.63-50.58,19.4-75.8,29.31h.01Z"/>
  <path class="st72" d="M2261.17,1612.89c-24.6-11.45-49.23-22.85-73.88-34.19-13.2-5.97-28.89-5.33-42.03.47-26.65,11.86-53.23,23.86-79.76,35.99-12.18,5.53-22.79,16.37-24.45,30.11-2.76,24.78-5.35,49.58-7.8,74.4-1.32,13.46,6.69,25.63,18.57,31.49,25.42,12.7,50.77,25.43,75.82,38.84,14.42,7.64,29.52,5.66,43.91-.55,26.92-14.25,54.17-27.65,81.6-40.91,12.21-7.1,22.68-16.9,23.55-31.96,1.27-24.73,2.61-49.45,4.04-74.17.74-13.11-8.04-24.24-19.57-29.52h0Z"/>
  <path class="st35" d="M2532.01,1611.6c-25.6-11.77-51.24-23.46-76.92-35.07-13.32-5.94-29.14-5.86-42.48-.04-26.19,11.54-52.35,23.18-78.45,34.92-11.95,5.32-22.15,16.14-22.93,29.72-1.25,24.7-2.43,49.39-3.55,74.1-.59,13.85,8.52,25.8,20.62,31.67,26.49,12.99,52.86,26.04,78.89,39.93,15.54,6.68,28.88,6.62,44.46.06,26.55-13.87,53.43-26.9,80.46-39.81,12.28-5.8,21.96-17.6,21.95-31.62-.12-24.7-.25-49.39-.4-74.09-.15-13.45-9.87-24.41-21.64-29.76h-.01Z"/>
  <path class="st16" d="M1692.41,2244.66c-26.53,15.71-53.01,31.48-79.46,47.32-13.56,8.16-22.1,23.16-22.59,38.93-.91,31.3-1.62,62.61-2.13,93.92-.25,15.61,7.51,30.87,20.89,39.14,25.9,15.93,51.83,31.82,77.79,47.66,15.3,7.53,28.26,7.6,43.65.26,26.64-15.78,53.3-31.52,79.98-47.22,13.85-8.17,22.4-23.47,22.62-39.49.42-31.72.97-63.43,1.67-95.14.36-15.74-7.55-31.05-21.15-39.19-25.96-15.5-51.91-31.01-77.85-46.54-15.29-7.32-28.19-6.96-43.42.36h0Z"/>
  <path class="st39" d="M1552.75,2489.7c-25.42,15.42-50.81,30.89-76.17,46.41-13.2,8.12-20.74,23.2-20.61,38.55.27,31.02.77,62.04,1.49,93.05.39,15.56,8.54,30.53,21.78,38.84,25.68,16.05,51.41,32.02,77.19,47.92,13.76,6.92,28.42,9.17,42.35.93,25.41-15.08,50.83-30.13,76.27-45.16,13.46-7.98,21.17-23.14,20.9-38.63-.51-31.49-.85-62.99-1.02-94.48-.09-15.84-8.25-31.15-21.83-39.47-25.95-15.87-51.87-31.78-77.76-47.74-14.95-7.44-27.58-7.53-42.59-.21h0Z"/>
  <path class="st113" d="M2470.45,1442.23c-10.3,5.13-20.48,12-20.99,24.78-.53,21.07-1.04,42.15-1.53,63.22-.21,12.69,9.51,22.77,20.52,27.61,25.59,11.43,51.14,22.94,76.65,34.54,13.34,6.01,29.26,6.2,42.67.3,25.23-11.24,50.48-22.4,75.77-33.5,10.94-4.71,20.34-14.8,19.78-27.36-1.04-21.12-2.16-42.23-3.36-63.34-.82-12.11-11.19-20.89-21.78-25.08-24.71-9.93-49.46-19.73-74.26-29.41-12.72-4.89-27.44-5.05-40.21-.24-24.47,9.39-48.89,18.88-73.27,28.48h.01Z"/>
  <path class="st94" d="M2825.38,1643.78c-1.05-13.67-11.37-24.58-23.38-30.09-26.23-12.14-52.52-24.17-78.86-36.08-13.23-5.92-29-6.39-42.35-.56-25.36,11.26-50.68,22.58-75.98,33.97-11.7,5.2-21.15,16.12-21.02,29.43.33,24.68.62,49.36.9,74.04.23,14.13,10.1,25.97,22.41,31.95,27.13,13.31,54.11,26.72,80.73,41.02,15.42,6.74,28.71,7.14,44.29.66,25.77-13.42,51.85-26.1,78.03-38.71,12.06-5.74,20.83-17.69,20.03-31.39-1.49-24.76-3.08-49.51-4.79-74.25h0Z"/>
  <path class="st92" d="M2976.2,1851.55c-.8-15.29-10.44-28.87-23.67-36.15-26.94-14.81-53.71-30.14-81.15-43.99-14.34-5.9-29.32-7.91-43.82-.97-26.45,12.83-52.33,26.95-78.37,40.61-13.11,6.86-21.71,20.52-21.41,35.42.6,29.39,1.14,58.78,1.63,88.17.29,15.68,9.6,29.98,23.14,37.6,27.5,15.47,54.96,31.01,82.38,46.61,13.74,7.81,31.06,8.39,44.99.72,26.48-14.62,52.97-29.21,79.47-43.77,13.23-7.26,21.38-21.52,20.76-36.61-1.2-29.22-2.52-58.44-3.96-87.65h.01Z"/>
  <path class="st1" d="M2977.58,1999.61c-26.52,14.65-53.03,29.33-79.52,44.03-13.62,7.56-21.99,22.29-21.68,37.84.61,31.1,1.13,62.21,1.57,93.32.25,16.16,9.31,31.27,23.22,39.41,27.53,16.08,55.03,32.21,82.5,48.38,13.74,8.09,31.18,8.54,45.08.58,26.69-15.32,53.37-30.65,80.05-45.98,13.59-7.82,21.67-22.84,21.25-38.45-.85-30.86-1.84-61.71-2.97-92.56-.62-15.86-9.84-30.47-23.48-38.42-27.17-15.8-54.38-31.53-81.63-47.18-15.45-7.24-28.69-7.85-44.38-.96h-.01Z"/>
  <path class="st116" d="M2824.32,2714.17c14.14-8.09,23.23-23.36,23.47-39.65.45-32.03.83-64.06,1.13-96.09.14-16.3-8.56-31.8-22.62-40.08-27.64-16.24-55.28-32.47-82.94-48.69-14.12-8.27-31.96-8.36-46.17-.25-27.97,15.99-55.94,31.97-83.91,47.94-14.24,8.14-23.28,23.59-23.4,40-.2,32.14-.42,64.29-.66,96.43-.11,16.29,8.69,31.71,22.78,39.9,27.59,16.01,55.18,32.01,82.79,48,14.08,8.14,31.81,8.08,45.93.07,27.89-15.83,55.75-31.69,83.6-47.59h0Z"/>
  <path class="st71" d="M2987.11,2489.48c-27.52,15.93-55.05,31.83-82.6,47.71-14.12,8.16-23.02,23.56-23.19,39.85-.31,32.01-.7,64.02-1.18,96.03-.24,16.09,8.22,31.49,22.14,39.65,26.99,15.79,53.97,31.59,80.96,47.39,13.82,8.07,31.23,7.81,45.03-.14,27.42-15.81,54.82-31.67,82.18-47.58,13.93-8.12,22.84-23.28,23.21-39.39.68-31.75,1.23-63.5,1.64-95.25.2-16.03-8.13-31.44-21.93-39.71-26.98-16.13-53.99-32.23-81.01-48.3-13.82-8.21-31.35-8.3-45.27-.25h.02Z"/>
  <path class="st51" d="M2465.96,2959.04c27.33,15.45,54.69,30.86,82.07,46.22,13.97,7.81,31.42,7.8,45.44.12,27.67-15.19,55.31-30.43,82.92-45.72,13.89-7.7,23.16-22.38,23.47-38.34.58-31.2,1.1-62.4,1.59-93.6.24-16.07-8.49-31.26-22.38-39.29-27.59-15.94-55.17-31.89-82.74-47.86-14.13-8.17-31.94-8.21-46.15-.19-27.87,15.77-55.76,31.51-83.66,47.23-14.04,7.92-23.09,23.01-23.14,39.17-.07,31.24-.14,62.49-.19,93.73-.01,15.92,8.96,30.73,22.76,38.53h0Z"/>
  <path class="st60" d="M2753.97,2958.13c26.77,15.15,53.56,30.27,80.36,45.37,13.84,7.76,31.11,7.35,44.9-.3,27.6-15.34,55.16-30.74,82.68-46.21,13.81-7.78,23.2-22.37,23.83-38.29,1.17-31,2.22-62.01,3.16-93.01.47-15.8-7.76-30.94-21.44-38.93-26.97-15.74-53.95-31.48-80.92-47.22-13.98-8.14-31.6-7.97-45.61.01-27.82,15.87-55.66,31.7-83.52,47.49-14.04,7.97-23.25,23.03-23.55,39.22-.53,31.2-1.12,62.39-1.76,93.59-.32,15.71,8.2,30.54,21.86,38.28h.01Z"/>
  <path class="st85" d="M3674.18,3022.12c-.56,1.13-1.07,2.28-1.54,3.44.51-1.15,1.03-2.29,1.54-3.44Z"/>
  <path class="st37" d="M3517.06,3258.39c-2.13,11.7-4.33,23.39-6.59,35.06,21.81-27.74,42.5-56.4,62.01-85.91-10.06,5.79-20.14,11.56-30.25,17.28-12.46,7.05-22.51,19.31-25.17,33.57h0Z"/>
  <path class="st14" d="M3355.58,3452.73c-.59,2.42-1.21,4.84-1.81,7.26,16.93-15.07,33.47-30.58,49.58-46.52-7.21,3.47-14.42,6.93-21.65,10.36-11.9,5.64-22.78,15.8-26.13,28.9h0Z"/>
  <path class="st18" d="M1600.33,2909.35c.94,15.59,9.98,30.02,23.32,38.04,26.44,15.84,52.92,31.6,79.46,47.27,13.85,6.71,28.64,9.27,42.76,1.38,25.29-14.25,50.57-28.51,75.86-42.78,13.26-7.49,20.85-22.17,20.24-37.27-1.21-30.79-2.27-61.59-3.18-92.39-.49-15.97-9.41-30.95-23.1-39.14-26.85-16.02-53.66-32.11-80.44-48.25-15.18-7.45-28.1-7.98-43.47-.77-25.44,14.97-50.87,29.95-76.28,44.97-13.13,7.78-20.4,22.67-19.74,37.76,1.32,30.41,2.85,60.8,4.58,91.19h0Z"/>
  <path class="st82" d="M1751.65,3142.15c1.33,15.15,11.04,28.57,24.12,35.96,26.62,15.03,53.12,30.37,80.19,44.56,13.81,5.97,28.46,8.5,42.57,1.58,25.17-12.54,49.93-25.96,74.79-39.1,12.79-6.74,20.5-20.4,19.71-34.84-1.56-29.15-2.98-58.31-4.28-87.48-.73-15.63-10.18-29.83-23.64-37.53-27.21-15.58-54.37-31.24-81.5-46.97-14.21-6.75-29.32-9.15-43.74-1.13-25.27,14.18-50.55,28.35-75.83,42.5-12.82,7.17-20.04,21.36-19.01,35.92,2.01,28.85,4.21,57.69,6.62,86.51v.02Z"/>
  <path class="st111" d="M2023.87,3149.81c.81,15.28,10.44,28.86,23.67,36.13,26.93,14.8,53.71,30.05,81.16,43.88,14.34,5.9,29.31,7.9,43.81.97,26.44-12.82,52.32-26.85,78.34-40.49,13.11-6.85,21.71-20.51,21.4-35.4-.6-29.38-1.15-58.75-1.64-88.13-.29-15.67-9.6-29.97-23.14-37.59-27.49-15.47-54.95-31-82.37-46.59-13.74-7.81-31.06-8.38-44.99-.73-26.47,14.61-52.96,29.2-79.46,43.75-13.22,7.25-21.38,21.51-20.76,36.6,1.2,29.21,2.52,58.41,3.97,87.61h0Z"/>
  <path class="st24" d="M2451.79,3233.4c27.25-13.11,53.85-27.62,80.61-41.69,13.28-6.97,22.53-20.59,22.73-35.76.35-29.43.68-58.86,1-88.29.15-15.56-8.8-29.91-22.29-37.43-27.35-15.27-54.67-30.6-81.96-45.97-13.96-7.84-31.46-8.02-45.52-.33-27.24,14.96-54.5,29.88-81.79,44.76-13.48,7.34-22.34,21.61-22.14,37.06.4,29.4.84,58.81,1.34,88.21.29,15.25,9.62,28.93,22.87,36.09,26.82,14.5,53.47,29.49,80.81,42.99,15.43,6.17,28.82,6.33,44.33.35h0Z"/>
  <g>
    <path class="st99" d="M1317.56,2901.05c-2.2-29.67-4.15-59.35-5.85-89.05-.85-14.81-8.11-29.47-20.36-38.08-18.23-12.71-36.4-25.51-54.52-38.38,13.16,71.01,32.15,139.96,56.47,206.35,2.88-1.81,5.76-3.62,8.63-5.44,11.76-7.52,16.68-21.94,15.62-35.4h.01Z"/>
    <path class="st112" d="M1463.64,3130.7c-3.47-28.19-6.66-56.41-9.59-84.67-1.6-15.08-10.72-28.9-23.57-36.81-25.12-15.41-50.14-30.91-74.75-47.12-11.04-7.36-25.75-9.37-37.38-2.16-4.9,3.06-9.81,6.1-14.71,9.16,29.57,75.35,66.05,147.22,108.66,214.85,12.04-6.72,24.08-13.44,36.11-20.16,11.73-6.57,16.91-20.12,15.24-33.09h-.01Z"/>
    <path class="st79" d="M2102.29,1298.94c24.12-7.31,48.3-14.45,72.54-21.39,8.41-2.32,19.52-7.01,22.52-16.1,1.02-3.69,2.05-7.38,3.12-11.06-50.42,12.04-99.68,27.05-147.59,44.84,4.09,1.38,8.17,2.77,12.26,4.16,12.37,4.03,24.8,2.53,37.16-.45h-.01Z"/>
    <path class="st0" d="M2237.97,1276.46c21.29,6.62,42.54,13.37,63.75,20.25,12.57,3.95,25.05,2.86,37.64-.13,23.2-7.06,46.45-13.96,69.74-20.7,7.77-2.94,18.13-6.26,19.68-15.87.83-11.19,1.69-22.38,2.72-33.55-.08-4.23-3.26-7.09-7.1-8.98-67.11,3.89-132.83,12.94-196.79,26.75-1.51,5.47-2.94,10.96-4.34,16.46-1.79,9.22,8.1,12.98,14.7,15.77h0Z"/>
    <path class="st4" d="M1848.13,1406.95c20.88,8.9,41.74,17.86,62.59,26.85,12.36,5.18,26.89,4,39.17-.81,25.62-10.03,51.3-19.89,77.05-29.59,10.33-4.75,21.33-10.77,24.33-22.75,3.73-16.79,7.7-33.5,11.98-50.16,2.6-10.17-5.87-15.08-13.51-18.84-6.93-2.44-13.86-4.85-20.79-7.27-66.6,26.26-130.47,57.93-191.09,94.45,2.39,3.57,6.07,6.42,10.27,8.11h0Z"/>
    <path class="st50" d="M2094.06,1401.58c22.38,9.04,44.74,18.16,67.07,27.34,12.66,5.1,27.4,4.46,40.04-.39,25.12-9.69,50.29-19.24,75.52-28.65,9.81-4.53,20.57-10.49,22.16-22.41,1.77-16.63,3.65-33.23,5.68-49.83.99-10.62-8.45-15.18-16.51-18.87-21.34-7.14-42.72-14.17-64.14-21.07-12.41-3.83-24.78-2.59-37.19.28-24.33,7.21-48.6,14.6-72.82,22.17-9.55,3.69-20.54,8.4-23.63,19.25-4.05,16.62-7.79,33.29-11.31,50.03-2.13,10.39,6.14,18.68,15.15,22.13l-.02.02Z"/>
    <path class="st107" d="M2344.72,1398.75c23.67,9.22,47.31,18.55,70.9,27.96,12.78,5.02,27.61,4.93,40.42.04,24.29-9.39,48.61-18.67,72.98-27.84,9.49-3.43,19.59-11.13,19.65-22.18-.26-16.58-.55-33.17-.86-49.75-.48-10.12-10.78-16.33-19.42-19-22.63-7.34-45.29-14.53-68.01-21.58-12.07-3.62-25.39-3.55-37.48-.03-23.4,7-46.75,14.16-70.05,21.48-8.95,2.7-19.66,8.73-21.11,18.96-1.77,16.57-3.41,33.14-4.96,49.73-.83,10.85,8.69,18.76,17.94,22.21h0Z"/>
    <path class="st74" d="M1685.24,1573.3c21.64,10.78,43.27,21.55,64.91,32.32,12.64,6.14,27.93,4.58,40.36-1.27,26.43-12.4,52.95-24.63,79.54-36.68,11.75-5.28,22.71-15.26,25.27-28.37,3.94-21.37,8.11-42.69,12.56-63.96,2.37-10.85-4.34-20.54-14.17-24.69-20.95-9.21-41.91-18.38-62.89-27.51-9-3.79-19.21-4-28.78-1.92-42.16,27.33-82.61,57.07-121.17,89.01-3.05,11.87-6.01,23.76-8.86,35.68-2.77,11.27,2.86,22.36,13.21,27.38h.02Z"/>
    <path class="st100" d="M1939.86,1564.96c23.23,10.95,46.45,21.93,69.66,32.94,13.09,6.08,28.76,5.12,41.74-.75,26.45-11.97,52.96-23.8,79.53-35.5,11.5-5,22.26-14.9,23.85-27.93,2.37-21.19,4.87-42.35,7.54-63.5,1.43-11.39-6.81-20.67-16.84-24.71-22.44-9.4-44.9-18.75-67.39-28.02-12.49-5.01-27.03-4.15-39.47.58-25.83,9.92-51.6,20-77.3,30.25-11.19,4.42-22.32,13.13-25,25.46-4.27,21.23-8.27,42.5-12.04,63.83-2.1,11.84,5.15,22.52,15.71,27.36h0Z"/>
    <path class="st69" d="M1482.8,1742.42c2.18-11.97,4.43-23.93,6.74-35.88-22.12,28.12-43.08,57.2-62.83,87.14,10.29-5.93,20.59-11.83,30.93-17.67,12.46-7.05,22.51-19.32,25.16-33.59h0Z"/>
    <path class="st12" d="M1510.65,1739.78c-2.28,12.43,2.86,25.26,14.15,31.45,22.13,12.18,44.29,24.31,66.35,36.62,13.39,7.35,27.6,4.33,40.67-1.77,26.34-14.77,52.91-29.03,79.65-43.06,12.6-6.6,23.07-18.59,25.27-32.94,3.73-25.07,7.69-50.09,11.91-75.08,2.14-12.14-3.89-23.9-14.92-29.37-21.71-10.93-43.41-21.87-65.11-32.81-12.32-6.06-27.27-4.31-39.33,1.5-25.52,12.29-50.93,24.78-76.24,37.47-9.37,10.22-18.58,20.59-27.63,31.11-.09.37-.18.75-.26,1.12-5.16,25.19-9.98,50.44-14.52,75.75h0Z"/>
    <path class="st87" d="M1782.51,1759.27c23.95,12.43,47.89,24.86,71.61,37.73,14.03,7.52,28.79,5.03,42.65-1.16,26.85-14.56,54.02-28.37,81.36-41.99,12.57-6.24,23.13-18.05,24.7-32.4,2.59-24.85,5.32-49.68,8.24-74.5,1.53-12.67-6.01-24.07-17.29-29.39-23.29-11.17-46.59-22.31-69.9-33.44-12.86-6.01-28.27-4.82-40.98.99-26.67,12.22-53.25,24.62-79.76,37.19-12.33,5.83-23.04,16.8-25.45,30.6-4.09,24.95-7.93,49.93-11.55,74.95-1.91,12.98,4.76,25.45,16.37,31.42h0Z"/>
    <path class="st57" d="M1372.03,1994.83c22.15,13.9,44.59,27.34,66.95,40.89,13.26,7.96,27.42,5.16,40.48-1.28,25.98-15.53,52.01-30.97,78.11-46.3,13.14-7.75,22.53-21.62,24.06-36.89,2.8-28.58,5.83-57.14,9.11-85.67,1.61-13.41-4.13-27.1-16.13-33.87-22.2-12.52-44.38-25.08-66.65-37.47-12.31-6.71-27.51-4.64-39.32,2.12-23.09,13.16-46.07,26.53-68.93,40.08-12.02,19.88-23.51,40.11-34.46,60.68-2.84,20.99-5.51,42.01-8.02,63.05-1.62,13.22,3.21,27.33,14.8,34.66Z"/>
    <path class="st103" d="M1628.65,1984.69c24.33,14.2,48.67,28.4,73,42.6,14.03,8.12,28.89,5.69,42.82-.88,26.95-15.51,53.94-30.94,80.98-46.29,13.45-7.64,23.02-21.69,24.12-37.24,2-29.03,4.17-58.05,6.51-87.06,1.18-14.14-5.82-27.89-18.35-34.74-23.99-13.14-47.88-26.48-72.09-39.2-13.73-7.07-28.16-4.39-41.64,1.5-26.81,14.16-53.14,29.28-79.56,44.15-13.03,7.35-22.81,20.6-24.56,35.62-3.18,28.58-6.12,57.19-8.83,85.81-1.37,14.22,5.12,28.45,17.6,35.74h0Z"/>
    <path class="st21" d="M1338.52,2271.98c24.13-16.28,48.73-31.64,73.5-46.92,13.15-8.15,21.62-22.77,22.6-38.16,1.89-30.08,4.03-60.13,6.42-90.17,1.16-14.13-4.7-28.72-17.05-36.3-22.25-13.59-44.45-27.21-66.46-41.17-11.57-7.28-26.29-5.49-37.38,1.79-5.68,3.71-11.36,7.42-17.03,11.15-25.22,64.49-45.39,131.51-60,200.58,19.45,13.34,38.91,26.67,58.38,39.98,11.27,7.71,25.94,6.77,37.02-.78h0Z"/>
    <path class="st15" d="M1482.16,2222.51c24.46,15.11,48.93,30.18,73.43,45.21,13.83,8.45,28.53,6.34,42.38-.41,26.41-15.83,52.86-31.59,79.35-47.28,13.61-8.09,22.52-22.92,23.28-38.72,1.44-30.62,3.06-61.22,4.87-91.82.9-14.82-6.06-29.55-19.01-37.17-24.36-14.31-48.72-28.62-73.08-42.93-13.68-7.97-28.17-5.38-41.68,1.14-26.15,15.39-52.25,30.87-78.3,46.45-13.21,7.94-22.21,22.18-23.45,37.57-2.33,30.1-4.41,60.22-6.26,90.36-.91,14.77,5.72,29.67,18.48,37.59h-.01Z"/>
    <path class="st54" d="M1283.64,2465.99c12.23-8.51,18.6-23.51,18.87-38.13.57-30.59,1.39-61.16,2.44-91.73.52-14.18-4.91-29.2-16.88-37.53-17.02-11.72-34.03-23.47-51.03-35.22-14.28,76.69-21.75,155.78-21.75,236.62,0,4.28.03,8.54.07,12.81.92-.43,1.85-.9,2.8-1.41,21.78-15.2,43.61-30.34,65.48-45.41h0Z"/>
    <path class="st70" d="M1460.34,2511.7c25.32-15.55,50.68-31.05,76.07-46.49,13.41-8.19,21.43-23.33,21.68-38.93.52-31.25,1.24-62.5,2.17-93.74.47-15.23-6.69-30.4-19.81-38.52-24.5-15.11-48.99-30.25-73.44-45.43-12.6-7.8-28.62-7.13-41.09.57-24.99,15.4-50.26,30.46-74.61,46.87-12.51,8.51-19.62,23.39-20.16,38.32-1.08,30.67-1.91,61.34-2.5,92.02-.28,14.63,5.81,29.76,18.05,38.32,23.6,16.33,48.09,31.39,72.31,46.76,12.54,7.96,28.68,8.05,41.32.27v-.02Z"/>
    <path class="st17" d="M2456.31,1226c-.71,11.15-1.3,22.3-1.88,33.45.29,9.52,10.56,12.97,17.82,15.85,22.59,6.76,45.13,13.68,67.63,20.74,12.63,3.08,25.11,4.01,37.75.18,22.04-6.85,44.11-13.56,66.23-20.13,6.99-2.79,17.17-6.3,16.64-15.74-1.47-11.22-3.02-22.43-4.87-33.6-.24-.81-.56-1.55-.94-2.25-50.71-6.09-102.34-9.22-154.69-9.22-10.31,0-20.59.13-30.84.37-5.68,1.69-11.7,4.27-12.85,10.34h0Z"/>
    <path class="st109" d="M2707.14,1276.02c23.68,6.94,47.3,14.07,70.88,21.37,12.49,3.07,24.96,4.4,37.49.5,20.68-6.68,41.39-13.24,62.14-19.69,2.7-.72,5.78-2.04,8.35-3.9-66.22-20.83-134.75-36.45-205.11-46.37,2.05,10.65,3.79,21.35,5.45,32.06,2.33,9.61,12.71,12.96,20.81,16.03h0Z"/>
    <path class="st101" d="M2596.83,1398.46c24.7,9.44,49.35,19.01,73.95,28.71,12.72,4.97,27.52,5.41,40.31.46,23.16-9.13,46.35-18.18,69.58-27.15,9.16-3.37,18.26-11.36,16.94-22.05-2.27-16.67-4.7-33.31-7.34-49.92-2.04-10.32-12.91-16.4-22.11-19.24-23.69-7.58-47.42-14.98-71.22-22.22-12.5-2.96-24.89-4.04-37.41-.34-22.23,6.84-44.41,13.81-66.55,20.9-8.43,2.56-18.44,8.79-18.31,18.78.58,16.56,1.1,33.12,1.59,49.68.63,11.83,11.12,17.88,20.58,22.39h-.01Z"/>
    <path class="st62" d="M2894.97,1289.01c-20.85,6.71-41.67,13.53-62.46,20.45-7.87,3.63-16.99,8.25-15.36,18.7,2.9,16.59,5.57,33.22,8.06,49.87,2.12,11.96,12.97,17.99,22.96,22.67,25.42,9.7,50.77,19.56,76.06,29.58,12.46,4.92,27.12,5.9,39.72.88,21.79-8.92,43.61-17.78,65.45-26.58,8.97-3.42,16.65-11.85,14.12-22.02-4.2-16.87-8.66-33.64-13.5-50.34-.42-1.26-.94-2.43-1.54-3.53-31.67-14.31-64.02-27.37-97-39.13-12.15-2.88-24.34-4.27-36.53-.54h.02Z"/>
    <path class="st66" d="M3095.47,1405.48c25.78,10,51.47,20.19,77.1,30.57,12.03,4.88,26.42,6.41,38.63,1.3,2.24-.97,4.49-1.94,6.74-2.91-50.33-33.97-103.19-64.47-158.25-91.16,3.81,12.99,7.41,26.03,10.83,39.14,3.19,11.4,14.47,19.04,24.95,23.06Z"/>
    <path class="st31" d="M2727.37,1443.29c-10.19,3.95-19.22,12.95-18.51,24.59,1.42,21.09,2.74,42.19,3.97,63.29.88,12.94,11.3,22.92,22.59,27.89,26.26,11.73,52.46,23.57,78.61,35.54,13.14,5.98,28.93,6.76,42.23.83,24.08-10.94,48.18-21.83,72.3-32.69,10.31-6,19-14.1,17.37-27.23-2.7-21.24-5.58-42.45-8.67-63.63-1.98-12.29-12.86-21.04-23.82-25.42-25.39-10.25-50.84-20.35-76.35-30.29-12.57-4.85-27.2-5.53-39.86-.66-23.32,9.18-46.61,18.44-69.86,27.78Z"/>
    <path class="st55" d="M2974.88,1535.19c1.92,13.08,12.72,23.07,24.28,28.27,26.52,12.06,52.97,24.28,79.35,36.66,12.71,5.97,28.22,7.33,41.19,1.35,22.65-10.68,45.3-21.34,67.96-32,10.51-4.8,17.18-15.58,14.86-27.2-4.22-21.45-8.69-42.84-13.49-64.17-3-12.37-14.12-21.22-25.41-25.86-25.71-10.62-51.48-21.06-77.34-31.3-12.23-4.82-26.66-6.01-39.04-1.07-21.93,9.02-43.83,18.09-65.71,27.2-9.95,3.98-17.65,13.34-15.88,24.51,3.29,21.17,6.36,42.38,9.25,63.61h-.02Z"/>
    <path class="st63" d="M3216.48,1478.11c4.98,21.33,9.63,42.72,14,64.18,2.82,13.12,13.69,23.24,25.45,28.76,26.33,12.44,52.57,25.07,78.72,37.9,12.06,5.95,27.1,7.91,39.53,1.88,11.89-5.93,23.78-11.88,35.67-17.83-52.48-52.64-109.49-100.76-170.41-143.71-3.25,1.43-6.51,2.86-9.76,4.29-9.76,4.12-15.81,13.94-13.21,24.53h.01Z"/>
    <path class="st96" d="M2855.52,1643.26c1.88,24.74,3.63,49.48,5.27,74.24,1.01,14.3,11.37,26.14,23.81,32.33,27.31,13.66,54.45,27.46,81.24,42.11,14.11,6.34,29.05,8.7,43.4,1.27,24.62-12.91,49.49-25.27,74.4-37.59,11.82-5.78,19.37-17.99,17.89-31.25-2.76-24.91-5.7-49.8-8.84-74.67-1.88-13.79-12.48-24.77-24.68-30.53-26.45-12.56-52.98-24.96-79.58-37.21-12.92-5.91-28.49-6.93-41.61-1.07-24.18,11.02-48.34,22.06-72.48,33.15-11.45,5.18-19.82,16.32-18.83,29.24v-.02Z"/>
    <path class="st40" d="M3121.98,1649.55c3.3,24.87,6.38,49.76,9.27,74.68,1.74,14.36,12.19,26.32,24.71,32.82,26.99,14.05,53.81,28.28,80.33,43.19,13.46,6.28,27.96,9.16,41.8,1.87,23.12-12.36,46.4-24.4,69.67-36.47,11.53-5.93,17.64-18.48,15.66-31.23-3.82-25.16-7.9-50.27-12.27-75.33-2.56-13.82-13.11-24.97-25.4-31.08-26.21-13.02-52.51-25.84-78.91-38.47-12.38-5.91-27.59-7.49-40.28-1.59-22.7,10.81-45.4,21.63-68.1,32.45-11.2,5.26-18.2,16.72-16.48,29.16h0Z"/>
    <path class="st78" d="M3379.15,1659.33c4.49,25.08,8.69,50.2,12.62,75.37,2.3,14.33,12.51,26.51,24.99,33.41,26.13,14.47,52.11,29.19,77.9,44.27,11.79,6.94,27.08,9.21,39.48,2.47,12.97-7.18,25.95-14.34,38.93-21.51-42.69-64.69-91.07-125.29-144.43-181.09-11.79,5.97-23.59,11.95-35.39,17.91-10.93,5.44-16.33,17.3-14.1,29.18h0Z"/>
    <path class="st44" d="M3248.47,1859.19c-1.32-15.16-11.03-28.58-24.12-35.98-26.62-15.03-53.11-30.43-80.18-44.64-13.81-5.98-28.47-8.51-42.58-1.58-25.18,12.58-49.95,26.04-74.83,39.2-12.8,6.75-20.51,20.41-19.72,34.86,1.55,29.17,2.97,58.34,4.27,87.52.73,15.63,10.18,29.84,23.64,37.55,27.21,15.59,54.38,31.25,81.5,46.98,14.22,6.75,29.33,9.15,43.75,1.12,25.28-14.19,50.56-28.36,75.85-42.52,12.82-7.18,20.04-21.37,19.02-35.94-2.01-28.87-4.2-57.72-6.6-86.55v-.02Z"/>
    <path class="st49" d="M3278.15,1859.08c2.51,28.77,4.81,57.56,6.91,86.36,1.16,15.43,10.55,29.48,23.78,37.29,26.49,15.61,52.94,31.31,79.32,47.1,13.48,6.65,28.01,9.41,41.79,1.52,23.65-13.67,47.29-27.35,70.93-41.03,12.26-7.12,18.32-21.19,16.92-35.06-2.82-28.35-5.9-56.67-9.25-84.96-1.84-14.87-11.42-28.08-24.21-35.61-25.87-15.17-51.7-30.46-77.88-45.08-13.03-6.05-27.14-9.13-40.62-2.2-23.47,12.28-46.72,25-70.03,37.58-12.35,6.65-18.92,20.28-17.66,34.09Z"/>
    <path class="st32" d="M3536.53,1870.61c3.46,28.21,6.64,56.44,9.56,84.71,1.59,15.08,10.71,28.91,23.57,36.82,25.12,15.41,50.14,30.91,74.75,47.13,11.04,7.36,25.75,9.37,37.38,2.15,5.01-3.13,10.02-6.24,15.03-9.37-29.5-75.39-65.92-147.31-108.47-214.99-12.19,6.81-24.38,13.61-36.57,20.43-11.74,6.58-16.92,20.13-15.25,33.11h0Z"/>
    <path class="st2" d="M3399.76,2092.07c-.93-15.59-9.97-30.02-23.31-38.05-26.44-15.85-52.92-31.6-79.46-47.28-13.85-6.71-28.64-9.27-42.77-1.37-25.3,14.26-50.59,28.53-75.87,42.8-13.26,7.5-20.86,22.17-20.25,37.28,1.2,30.8,2.26,61.6,3.16,92.41.49,15.97,9.41,30.96,23.1,39.15,26.85,16.03,53.66,32.11,80.44,48.26,15.18,7.45,28.1,7.98,43.47.77,25.45-14.97,50.88-29.97,76.3-44.98,13.13-7.78,20.41-22.68,19.75-37.77-1.32-30.42-2.83-60.82-4.56-91.21h0Z"/>
    <path class="st10" d="M3429.36,2091.61c1.8,30.33,3.39,60.66,4.76,91.01.72,15.63,9.31,30.44,22.63,38.68,25.74,15.88,51.44,31.84,77.09,47.88,13.34,6.82,27.64,9.19,41.15.96,23.57-14.41,47.34-28.56,70.47-43.67,12.05-7.95,17.54-22.74,16.73-36.78-1.71-29.8-3.66-59.58-5.88-89.35-1.16-14.95-9.19-29.24-21.72-37.59-24.73-16.35-50.14-31.68-75.4-47.2-12.98-6.59-27.08-9.52-40.44-1.79-23.63,13.79-47.27,27.57-70.92,41.33-12.75,7.44-19.34,22.02-18.45,36.51h-.02Z"/>
    <path class="st73" d="M3682.55,2100.34c2.2,29.68,4.13,59.37,5.82,89.08.85,14.81,8.1,29.47,20.35,38.09,18.3,12.77,36.55,25.62,54.74,38.54-13.09-71.14-32.04-140.23-56.33-206.75-2.98,1.88-5.96,3.75-8.94,5.63-11.77,7.52-16.69,21.95-15.63,35.41h-.01Z"/>
    <path class="st67" d="M3046.75,2463.39c27.02,16.09,54.01,32.2,80.99,48.35,15.63,7.55,28.87,7.63,44.56.21,26.71-15.69,53.4-31.41,80.06-47.17,13.7-8.12,21.92-23.38,21.86-39.22-.14-31.55-.45-63.1-.93-94.65-.27-15.97-8.87-31.14-22.55-39.42-26.81-16.16-53.65-32.27-80.52-48.32-15.48-7.51-28.66-7.93-44.33-.71-26.68,15.39-53.37,30.77-80.06,46.15-13.86,8-22.23,23.27-22.09,39.21.27,31.88.42,63.76.46,95.64.03,16.18,8.63,31.63,22.55,39.94h0Z"/>
    <path class="st25" d="M3447.25,2511.78c25.43-15.42,50.82-30.89,76.18-46.42,13.2-8.12,20.74-23.2,20.62-38.55-.26-31.02-.75-62.04-1.47-93.06-.39-15.56-8.53-30.53-21.77-38.84-25.68-16.05-51.41-32.02-77.18-47.92-13.76-6.92-28.42-9.17-42.36-.92-25.41,15.08-50.84,30.14-76.28,45.17-13.46,7.98-21.17,23.14-20.91,38.64.51,31.5.84,62.99,1,94.49.08,15.84,8.25,31.15,21.82,39.47,25.95,15.86,51.87,31.77,77.75,47.74,14.95,7.44,27.58,7.52,42.59.2h0Z"/>
    <path class="st77" d="M1235.04,2701.44c22.4,15.95,44.89,31.79,67.45,47.52,10.99,7.71,25.66,8.85,37.06,1.33,22.87-15.06,46.09-29.46,69.43-43.8,12.89-7.96,19.74-22.96,19.35-37.86-.76-30.94-1.28-61.89-1.58-92.84-.14-15.35-7.69-30.45-20.74-38.8-24.03-15.29-47.94-30.62-71.33-46.87-11.11-7.78-25.77-7.89-36.95-.18-21.92,15.03-43.8,30.13-65.64,45.29-7.74,5.44-12.89,13.6-15.53,22.56,2.09,47.29,6.75,93.91,13.82,139.73,1.45,1.41,2.99,2.73,4.65,3.93h0Z"/>
    <path class="st102" d="M1570.73,2909.8c-1.81-30.32-3.4-60.65-4.78-90.99-.73-15.63-9.32-30.43-22.63-38.68-25.75-15.88-51.44-31.84-77.09-47.88-13.34-6.82-27.64-9.19-41.15-.96-23.56,14.41-47.33,28.54-70.45,43.66-12.05,7.95-17.53,22.74-16.72,36.77,1.71,29.79,3.68,59.57,5.91,89.33,1.16,14.95,9.2,29.24,21.73,37.58,24.74,16.34,50.15,31.68,75.41,47.19,12.12,7.48,27.84,9.08,40.44,1.79,23.63-13.78,47.26-27.55,70.9-41.31,12.75-7.44,19.34-22.01,18.44-36.5h-.01Z"/>
    <path class="st7" d="M1721.98,3142.26c-2.52-28.76-4.82-57.53-6.93-86.32-1.17-15.43-10.55-29.47-23.78-37.27-26.49-15.61-52.94-31.31-79.32-47.09-13.48-6.65-28-9.41-41.78-1.52-23.64,13.66-47.27,27.33-70.9,41.01-12.26,7.11-18.32,21.18-16.9,35.04,2.83,28.33,5.91,56.64,9.27,84.92,1.84,14.87,11.43,28.07,24.21,35.59,25.87,15.16,51.7,30.42,77.89,45.03,13.02,6.05,27.14,9.12,40.61,2.2,23.46-12.26,46.69-24.95,69.99-37.51,12.34-6.65,18.91-20.27,17.65-34.07h0Z"/>
    <path class="st47" d="M1620.99,3341.44c-4.5-25.06-8.7-50.18-12.63-75.33-2.31-14.32-12.52-26.5-24.99-33.39-26.13-14.47-52.12-29.17-77.91-44.24-11.79-6.93-27.08-9.21-39.48-2.47-12.87,7.11-25.74,14.22-38.61,21.33,42.72,64.65,91.13,125.22,144.52,180.98,11.67-5.9,23.33-11.82,35.01-17.71,10.92-5.44,16.33-17.29,14.09-29.16h0Z"/>
    <path class="st27" d="M1878.13,3351.21c-3.3-24.86-6.39-49.74-9.28-74.64-1.74-14.36-12.19-26.31-24.71-32.8-26.98-14.04-53.83-28.23-80.34-43.14-13.46-6.28-27.96-9.16-41.8-1.87-23.11,12.35-46.38,24.37-69.64,36.42-11.53,5.92-17.63,18.47-15.65,31.21,3.83,25.14,7.91,50.24,12.28,75.3,2.56,13.82,13.11,24.96,25.4,31.06,26.21,13.01,52.51,25.82,78.9,38.44,12.38,5.91,27.58,7.49,40.28,1.59,22.7-10.8,45.39-21.61,68.08-32.43,11.2-5.25,18.19-16.7,16.48-29.14h0Z"/>
    <path class="st53" d="M2144.54,3357.5c-1.88-24.72-3.63-49.46-5.28-74.2-1.01-14.29-11.37-26.13-23.81-32.31-27.3-13.65-54.47-27.4-81.24-42.04-14.11-6.34-29.05-8.7-43.4-1.27-24.61,12.9-49.48,25.21-74.38,37.53-11.81,5.78-19.36,17.98-17.88,31.24,2.76,24.9,5.7,49.78,8.85,74.63,1.88,13.79,12.48,24.76,24.68,30.52,26.45,12.55,52.97,24.95,79.57,37.19,12.91,5.91,28.48,6.93,41.6,1.07,24.17-11.01,48.33-22.05,72.47-33.13,11.45-5.17,19.81-16.3,18.82-29.22h0Z"/>
    <path class="st52" d="M2174.67,3356.98c1.05,13.67,11.38,24.57,23.38,30.08,26.23,12.14,52.51,24.15,78.85,36.06,13.22,5.92,29,6.39,42.34.56,25.35-11.25,50.67-22.57,75.97-33.95,11.7-5.2,21.14-16.11,21.01-29.41-.33-24.67-.63-49.33-.9-74-.23-14.13-10.1-25.96-22.4-31.93-27.11-13.3-54.12-26.65-80.72-40.94-15.42-6.74-28.71-7.14-44.28-.66-25.76,13.41-51.85,26.03-78.01,38.63-12.05,5.73-20.83,17.68-20.02,31.37,1.49,24.74,3.08,49.48,4.79,74.21v-.02Z"/>
    <path class="st13" d="M1783.68,3522.53c-4.99-21.31-9.64-42.69-14.02-64.13-2.82-13.11-13.7-23.23-25.46-28.74-26.33-12.43-52.57-25.05-78.71-37.87-12.06-5.95-27.1-7.91-39.53-1.88-11.77,5.87-23.52,11.75-35.28,17.63,52.5,52.61,109.54,100.68,170.48,143.59,3.1-1.36,6.21-2.73,9.32-4.09,9.76-4.12,15.81-13.92,13.2-24.5h0Z"/>
    <path class="st105" d="M2025.22,3465.5c-1.92-13.07-12.72-23.05-24.27-28.25-26.52-12.05-52.96-24.26-79.34-36.63-12.71-5.96-28.21-7.33-41.18-1.35-22.64,10.67-45.29,21.33-67.94,31.98-10.5,4.8-17.18,15.57-14.86,27.18,4.22,21.44,8.7,42.81,13.5,64.12,3,12.37,14.12,21.21,25.41,25.84,25.7,10.61,51.48,21.04,77.33,31.28,12.23,4.81,26.65,6.01,39.03,1.07,21.92-9.01,43.82-18.07,65.69-27.18,9.94-3.98,17.65-13.32,15.87-24.48-3.3-21.16-6.37-42.35-9.25-63.56v-.02Z"/>
    <path class="st42" d="M2272.68,3557.33c10.19-3.94,19.22-12.94,18.51-24.57-1.42-21.08-2.74-42.16-3.98-63.24-.88-12.94-11.31-22.9-22.59-27.87-26.25-11.72-52.45-23.56-78.6-35.51-13.14-5.98-28.93-6.76-42.23-.82-24.08,10.93-48.17,21.82-72.28,32.67-10.3,5.99-19,14.09-17.36,27.21,2.71,21.22,5.58,42.41,8.67,63.58,1.98,12.28,12.87,21.03,23.82,25.39,25.38,10.24,50.83,20.33,76.33,30.27,12.56,4.84,27.19,5.52,39.86.66,23.31-9.17,46.59-18.43,69.84-27.76h.01Z"/>
    <path class="st9" d="M2529.55,3558.38c10.3-5.12,20.48-11.98,20.99-24.75.54-21.06,1.04-42.11,1.53-63.17.21-12.69-9.51-22.76-20.52-27.59-25.58-11.42-51.13-22.93-76.64-34.52-13.34-6-29.25-6.2-42.67-.3-25.22,11.23-50.47,22.39-75.75,33.48-10.94,4.71-20.34,14.79-19.78,27.34,1.04,21.1,2.16,42.2,3.36,63.29.82,12.1,11.19,20.88,21.78,25.06,24.7,9.92,49.45,19.71,74.24,29.38,12.72,4.88,27.43,5.05,40.2.24,24.46-9.38,48.88-18.86,73.26-28.46h0Z"/>
    <path class="st68" d="M1904.61,3594.81c-25.77-10-51.47-20.18-77.09-30.56-12.02-4.88-26.41-6.41-38.63-1.3-2.17.94-4.34,1.87-6.51,2.81,50.23,33.89,102.99,64.32,157.94,90.96-3.78-12.9-7.36-25.85-10.76-38.86-3.19-11.4-14.47-19.03-24.95-23.04h0Z"/>
    <path class="st34" d="M2105.09,3711.2c20.85-6.7,41.66-13.52,62.44-20.43,7.86-3.63,16.98-8.24,15.35-18.68-2.9-16.58-5.57-33.2-8.07-49.84-2.12-11.95-12.97-17.98-22.96-22.66-25.41-9.7-50.76-19.55-76.05-29.56-12.46-4.92-27.12-5.9-39.71-.88-21.79,8.91-43.6,17.77-65.44,26.57-8.96,3.42-16.64,11.84-14.12,22.01,4.2,16.86,8.66,33.62,13.5,50.31.38,1.15.85,2.23,1.39,3.25,32.21,14.56,65.14,27.83,98.71,39.74,11.63,2.63,23.29,3.75,34.95.18h.01Z"/>
    <path class="st83" d="M2403.18,3601.83c-24.7-9.44-49.34-19-73.94-28.69-12.71-4.96-27.51-5.41-40.31-.46-23.16,9.13-46.35,18.17-69.57,27.14-9.15,3.36-18.26,11.36-16.93,22.04,2.27,16.66,4.7,33.29,7.35,49.89,2.04,10.31,12.91,16.39,22.11,19.22,23.68,7.57,47.42,14.97,71.21,22.2,12.49,2.95,24.89,4.04,37.4.34,22.22-6.83,44.4-13.8,66.54-20.88,8.43-2.56,18.44-8.78,18.31-18.77-.58-16.55-1.1-33.1-1.59-49.65-.63-11.83-11.12-17.87-20.58-22.38h0Z"/>
    <path class="st84" d="M2292.89,3724.19c-23.68-6.94-47.3-14.06-70.87-21.35-12.49-3.06-24.96-4.4-37.48-.5-20.67,6.67-41.38,13.23-62.12,19.68-2.64.7-5.64,1.98-8.17,3.77,66.14,20.8,134.59,36.39,204.87,46.29-2.04-10.58-3.77-21.22-5.42-31.87-2.33-9.61-12.72-12.95-20.81-16.02h0Z"/>
    <path class="st19" d="M2543.68,3774.16c.71-11.13,1.3-22.27,1.88-33.41-.29-9.51-10.56-12.96-17.82-15.84-22.59-6.75-45.13-13.67-67.62-20.73-12.63-3.08-25.1-4.01-37.74-.18-22.03,6.84-44.11,13.55-66.22,20.12-6.98,2.79-17.16,6.29-16.63,15.72,1.47,11.21,3.02,22.41,4.87,33.56.22.75.51,1.44.85,2.08,50.73,6.09,102.38,9.23,154.75,9.23,10.48,0,20.93-.13,31.35-.38,5.52-1.69,11.22-4.29,12.33-10.17h0Z"/>
    <path class="st104" d="M3765.02,2299.98c-22.4-15.95-44.88-31.79-67.44-47.51-10.99-7.72-25.66-8.84-37.06-1.32-22.88,15.07-46.1,29.48-69.44,43.82-12.89,7.97-19.75,22.96-19.37,37.87.75,30.94,1.27,61.89,1.55,92.84.14,15.34,7.68,30.45,20.73,38.8,24.03,15.29,47.93,30.61,71.32,46.86,11.11,7.78,25.77,7.88,36.95.18,21.93-15.04,43.81-30.14,65.65-45.3,7.78-5.47,12.95-13.69,15.58-22.7-2.04-47.17-6.62-93.69-13.62-139.4-1.51-1.49-3.12-2.88-4.85-4.13h0Z"/>
    <path class="st95" d="M3307.54,2756.8c26.53-15.71,53.02-31.48,79.47-47.32,13.56-8.16,22.11-23.15,22.59-38.93.92-31.3,1.63-62.6,2.16-93.91.25-15.61-7.5-30.87-20.88-39.14-25.9-15.93-51.83-31.82-77.78-47.66-15.3-7.53-28.26-7.6-43.65-.26-26.64,15.78-53.3,31.52-79.99,47.23-13.85,8.17-22.41,23.47-22.62,39.49-.42,31.71-.98,63.42-1.69,95.13-.36,15.74,7.55,31.05,21.15,39.19,25.96,15.49,51.9,31,77.84,46.53,15.29,7.32,28.19,6.96,43.42-.36h-.02Z"/>
    <path class="st41" d="M3539.66,2489.77c-25.33,15.56-50.69,31.05-76.08,46.5-13.42,8.19-21.43,23.33-21.69,38.93-.53,31.25-1.26,62.49-2.19,93.73-.47,15.23,6.68,30.4,19.8,38.52,24.5,15.1,48.98,30.24,73.43,45.42,12.6,7.8,28.62,7.12,41.09-.58,25-15.4,50.27-30.46,74.62-46.87,12.51-8.51,19.62-23.39,20.17-38.31,1.09-30.66,1.93-61.33,2.52-92.01.28-14.63-5.8-29.76-18.04-38.31-23.59-16.33-48.08-31.38-72.3-46.75-12.54-7.96-28.68-8.05-41.32-.26h-.01Z"/>
    <path class="st61" d="M3716.35,2535.45c-12.23,8.51-18.61,23.51-18.88,38.13-.58,30.58-1.4,61.16-2.47,91.73-.52,14.18,4.9,29.2,16.87,37.52,16.96,11.67,33.9,23.37,50.84,35.08,14.44-77.1,21.99-156.62,21.99-237.9,0-3.8-.02-7.59-.06-11.39-.92.44-1.85.9-2.81,1.41-21.78,15.21-43.62,30.35-65.5,45.42h.02Z"/>
    <path class="st28" d="M3158.98,2998.35c27.09-15.4,54.14-30.89,81.14-46.45,13.59-7.85,22.88-22.3,23.82-38.03,1.75-30.63,3.33-61.27,4.73-91.92.7-15.36-6.83-30.41-20.13-38.35-25.93-15.46-51.87-30.91-77.81-46.34-15.59-7.42-28.78-7.12-44.35.21-27.33,15.89-54.69,31.73-82.09,47.51-13.9,8.02-23.06,23-23.6,39.07-.99,30.98-2.1,61.96-3.33,92.94-.62,15.35,7.23,30.15,20.61,37.82,25.78,14.77,51.57,29.52,77.36,44.26,14.32,8.12,29.4,5.89,43.64-.72h.01Z"/>
    <path class="st23" d="M3517.77,2778.93c-24.45-15.1-48.92-30.16-73.41-45.2-13.83-8.45-28.53-6.34-42.38.41-26.41,15.83-52.86,31.59-79.35,47.28-13.61,8.08-22.52,22.91-23.28,38.72-1.45,30.61-3.07,61.2-4.89,91.79-.91,14.82,6.05,29.54,19,37.15,24.36,14.3,48.71,28.6,73.07,42.91,13.68,7.97,28.17,5.38,41.67-1.14,26.15-15.39,52.25-30.87,78.3-46.44,13.21-7.94,22.22-22.17,23.46-37.56,2.34-30.1,4.43-60.21,6.29-90.34.92-14.77-5.71-29.66-18.47-37.57h-.01Z"/>
    <path class="st48" d="M3661.41,2729.45c-24.13,16.28-48.74,31.64-73.51,46.92-13.15,8.15-21.62,22.77-22.61,38.15-1.9,30.07-4.04,60.12-6.44,90.15-1.17,14.12,4.69,28.71,17.04,36.28,22.24,13.58,44.44,27.2,66.45,41.15,11.57,7.28,26.29,5.48,37.38-1.8,5.5-3.59,11-7.19,16.49-10.79,25.38-64.62,45.68-131.79,60.4-201.03-19.38-13.29-38.77-26.56-58.17-39.82-11.27-7.71-25.94-6.77-37.03.79h0Z"/>
    <path class="st88" d="M2608.13,3190.49c26.28,14.12,52.41,28.69,79.16,41.91,14.53,7.09,29.6,5.47,44.15-.27,27.59-13.41,54.51-28.28,81.59-42.68,13.33-7.09,22.99-20.63,23.7-35.91,1.3-29.31,2.5-58.63,3.62-87.95.58-15.28-7.79-29.64-21.08-37.07-26.77-15-53.53-30.02-80.26-45.09-13.94-7.83-31.38-7.62-45.33.08-27.57,15.22-55.18,30.4-82.81,45.51-13.61,7.44-22.92,21.68-23.16,37.32-.41,29.44-.84,58.88-1.29,88.31-.22,15.05,8.57,28.79,21.72,35.84h0Z"/>
    <path class="st30" d="M3007.76,3226.95c27.45-13.76,54.28-28.81,81.25-43.48,13.25-7.22,23.08-20.63,24.31-35.86,2.24-29.03,4.32-58.06,6.24-87.11.99-14.83-6.55-29.15-19.51-36.5-25.77-14.63-51.52-29.29-77.27-43.96-15.62-7.1-28.89-6.61-44.43.48-27.48,15.41-54.99,30.75-82.55,46.02-13.6,7.53-23.15,21.71-23.83,37.38-1.21,29.31-2.51,58.62-3.91,87.92-.72,14.68,7.3,28.44,20.2,35.38,25.33,13.66,50.53,27.67,76.23,40.61,14.25,7.07,29.11,4.92,43.25-.88h.02Z"/>
    <path class="st38" d="M3371.24,3016.7c-24.33-14.19-48.66-28.38-72.98-42.57-14.03-8.12-28.89-5.68-42.81.88-26.95,15.51-53.94,30.94-80.98,46.28-13.44,7.64-23.02,21.68-24.13,37.23-2.01,29.02-4.18,58.03-6.52,87.02-1.18,14.13,5.82,27.88,18.34,34.72,23.97,13.12,47.84,26.45,72.05,39.12,13.73,7.06,28.15,4.38,41.64-1.5,26.81-14.16,53.16-29.22,79.58-44.08,13.02-7.35,22.82-20.59,24.56-35.6,3.18-28.57,6.13-57.16,8.85-85.77,1.37-14.21-5.11-28.44-17.59-35.72h-.01Z"/>
    <path class="st90" d="M3627.83,3006.53c-22.14-13.89-44.58-27.32-66.93-40.87-13.26-7.96-27.42-5.15-40.48,1.29-25.98,15.53-52.02,30.96-78.11,46.3-13.14,7.74-22.53,21.61-24.07,36.87-2.81,28.57-5.84,57.11-9.13,85.63-1.61,13.4,4.13,27.09,16.11,33.85,22.19,12.5,44.35,25.06,66.62,37.42,12.3,6.71,27.5,4.63,39.31-2.12,22.79-12.98,45.46-26.16,68.03-39.52,12.41-20.46,24.27-41.31,35.55-62.5,2.78-20.55,5.4-41.11,7.87-61.7,1.62-13.21-3.2-27.31-14.79-34.64h.02Z"/>
    <path class="st98" d="M2468,3389.14c25.6,11.77,51.23,23.45,76.9,35.05,13.32,5.94,29.13,5.85,42.48.04,26.19-11.54,52.34-23.17,78.44-34.9,11.95-5.32,22.14-16.13,22.92-29.7,1.25-24.68,2.43-49.37,3.55-74.06.59-13.84-8.52-25.79-20.62-31.65-26.47-12.98-52.86-25.98-78.88-39.85-15.54-6.68-28.88-6.62-44.45-.06-26.53,13.86-53.43,26.83-80.45,39.73-12.27,5.8-21.96,17.59-21.95,31.61.12,24.68.25,49.36.4,74.05.15,13.44,9.87,24.39,21.64,29.74h.02Z"/>
    <path class="st76" d="M2738.79,3387.85c24.6,11.44,49.22,22.83,73.86,34.17,13.2,5.97,28.89,5.33,42.02-.47,26.64-11.86,53.23-23.85,79.75-35.97,12.17-5.53,22.79-16.36,24.44-30.09,2.76-24.77,5.35-49.56,7.8-74.36,1.33-13.45-6.69-25.61-18.56-31.47-25.4-12.69-50.76-25.37-75.8-38.76-14.42-7.64-29.52-5.66-43.91.55-26.91,14.25-54.19,27.59-81.6,40.83-12.21,7.09-22.68,16.89-23.55,31.94-1.27,24.71-2.62,49.42-4.04,74.13-.74,13.11,8.04,24.22,19.57,29.51h.02Z"/>
    <path class="st22" d="M3217.39,3241.54c-23.94-12.42-47.87-24.81-71.58-37.67-14.03-7.52-28.79-5.02-42.65,1.16-26.85,14.55-54.04,28.31-81.37,41.93-12.57,6.23-23.13,18.04-24.7,32.38-2.59,24.84-5.33,49.66-8.24,74.46-1.53,12.67,6,24.05,17.28,29.38,23.28,11.16,46.58,22.3,69.88,33.42,12.86,6,28.26,4.81,40.97-.99,26.66-12.22,53.25-24.6,79.75-37.16,12.32-5.83,23.04-16.79,25.45-30.59,4.1-24.93,7.94-49.91,11.56-74.91,1.91-12.97-4.75-25.44-16.36-31.4h.01Z"/>
    <path class="st64" d="M3489.21,3261.04c2.28-12.43-2.86-25.25-14.14-31.43-22.12-12.17-44.28-24.28-66.33-36.58-13.39-7.35-27.59-4.33-40.67,1.77-26.33,14.77-52.92,29-79.66,43.02-12.59,6.59-23.07,18.58-25.28,32.93-3.73,25.05-7.7,50.07-11.92,75.04-2.14,12.14,3.89,23.88,14.91,29.35,21.7,10.92,43.4,21.85,65.1,32.79,12.32,6.05,27.27,4.31,39.33-1.5,25.19-12.12,50.27-24.44,75.26-36.96,9.78-10.63,19.38-21.43,28.8-32.39.02-.11.05-.21.07-.31,5.16-25.18,9.99-50.42,14.53-75.72h0Z"/>
    <path class="st110" d="M2785.69,3556.71c10.82-4.19,21.6-12.84,23.19-25.04,2.47-21.1,4.78-42.22,6.96-63.35,1.24-12.32-7.43-22.62-18.19-27.41-24.56-11.16-49.1-22.38-73.61-33.66-13.32-6.04-29.19-5.65-42.5.22-26.03,11.57-52.1,23.04-78.21,34.41-11.21,4.81-21.46,14.73-21.98,27.58-.67,21.08-1.38,42.17-2.13,63.25-.32,12.63,9.38,19.64,19.41,24.82,23.7,9.63,47.43,19.18,71.21,28.63,12.69,4.94,27.38,4.59,40.06-.17,25.31-9.62,50.57-19.38,75.78-29.28h.01Z"/>
    <path class="st3" d="M3060.03,3435.75c-23.23-10.95-46.44-21.92-69.64-32.92-13.09-6.08-28.75-5.11-41.73.75-26.45,11.96-52.95,23.79-79.52,35.47-11.5,5-22.26,14.89-23.85,27.91-2.37,21.17-4.87,42.32-7.55,63.45-1.43,11.38,6.81,20.65,16.83,24.69,22.43,9.4,44.88,18.73,67.37,27.99,12.49,5.01,27.02,4.15,39.46-.58,25.83-9.91,51.59-19.98,77.29-30.22,11.19-4.42,22.31-13.12,25-25.44,4.27-21.21,8.27-42.47,12.05-63.78,2.1-11.83-5.15-22.5-15.7-27.34v.02Z"/>
    <path class="st117" d="M3314.6,3427.42c-21.63-10.77-43.26-21.54-64.9-32.3-12.64-6.14-27.92-4.58-40.36,1.27-26.43,12.4-52.94,24.61-79.54,36.66-11.75,5.28-22.71,15.25-25.27,28.35-3.94,21.35-8.12,42.66-12.57,63.91-2.37,10.84,4.34,20.52,14.16,24.67,20.94,9.2,41.89,18.36,62.87,27.49,8.66,3.64,18.43,3.96,27.67,2.13,42.61-27.56,83.49-57.57,122.44-89.83,2.99-11.63,5.89-23.29,8.69-34.97,2.77-11.27-2.86-22.35-13.2-27.37h.01Z"/>
    <path class="st36" d="M2647.13,3692.38c8.95-2.69,19.66-8.72,21.11-18.95,1.77-16.56,3.41-33.12,4.96-49.7.83-10.84-8.69-18.75-17.94-22.2-23.67-9.22-47.3-18.54-70.89-27.95-12.78-5.02-27.61-4.93-40.41-.04-24.28,9.38-48.61,18.66-72.97,27.82-9.48,3.43-19.59,11.12-19.65,22.17.26,16.57.55,33.15.86,49.72.48,10.12,10.79,16.32,19.41,18.99,22.62,7.33,45.29,14.52,68,21.56,12.07,3.62,25.39,3.54,37.47.03,23.4-7,46.74-14.15,70.04-21.46h0Z"/>
    <path class="st75" d="M2905.89,3598.71c-22.38-9.04-44.73-18.15-67.06-27.33-12.66-5.09-27.4-4.46-40.03.38-25.12,9.68-50.29,19.23-75.51,28.64-9.8,4.53-20.57,10.48-22.16,22.4-1.77,16.62-3.65,33.21-5.68,49.8-.99,10.61,8.45,15.18,16.51,18.86,21.34,7.14,42.71,14.16,64.13,21.05,12.4,3.82,24.78,2.59,37.19-.28,24.33-7.2,48.59-14.59,72.81-22.16,9.55-3.69,20.53-8.39,23.63-19.24,4.05-16.61,7.79-33.27,11.31-50,2.13-10.39-6.14-18.67-15.14-22.12h0Z"/>
    <path class="st59" d="M3151.79,3593.34c-20.88-8.9-41.74-17.85-62.58-26.84-12.36-5.18-26.89-4-39.16.8-25.62,10.03-51.3,19.89-77.04,29.57-10.33,4.74-21.33,10.76-24.33,22.74-3.74,16.78-7.7,33.48-11.99,50.13-2.6,10.17,5.87,15.07,13.51,18.83,6.83,2.4,13.67,4.79,20.51,7.17,66.65-26.26,130.57-57.93,191.23-94.47-2.39-3.49-6.02-6.27-10.15-7.94h0Z"/>
    <path class="st114" d="M2761.99,3723.74c-21.29-6.61-42.53-13.36-63.74-20.23-12.56-3.94-25.05-2.86-37.63.13-23.2,7.05-46.44,13.95-69.73,20.68-7.76,2.94-18.13,6.26-19.68,15.85-.83,11.18-1.7,22.35-2.72,33.51.08,4.13,3.12,6.95,6.84,8.84,67.2-3.89,133.02-12.94,197.06-26.76,1.49-5.4,2.91-10.83,4.3-16.27,1.79-9.21-8.1-12.97-14.69-15.76h-.01Z"/>
    <path class="st11" d="M2897.65,3701.28c-24.12,7.31-48.3,14.43-72.53,21.37-8.41,2.31-19.51,7-22.52,16.09-1,3.63-2.02,7.25-3.07,10.86,50.29-12.01,99.44-26.98,147.24-44.71-3.99-1.35-7.98-2.7-11.97-4.06-12.37-4.03-24.79-2.53-37.15.45h0Z"/>
  </g>
  <circle class="st81" cx="2500" cy="2500" r="1284.71"/>
  <circle class="st20" cx="2500" cy="2500" r="1284.71"/>
  <circle class="st45" cx="2500" cy="2500" r="1284.71"/>
</svg>